<svg xmlns="http://www.w3.org/2000/svg"><defs><style>.icon { display: none; }.icon:target { display: inline; }</style></defs><symbol id="icon-1" viewBox="0 0 990 990"><g id="src-1" class="icon"><metadata> Svg Vector Icons : http://www.onlinewebfonts.com/icon </metadata><g><path d="M621.2,389.1h50.7c8,0,14.5-6.8,14.5-15.1v-52.6c0-8.3-6.5-15.1-14.5-15.1h-50.7c-8,0-14.5,6.8-14.5,15.1V374C606.7,382.4,613.2,389.1,621.2,389.1z"/><path d="M500,592.2c49.4,0,89.5-41.6,89.5-93c0-51.4-40.1-93-89.5-93c-49.4,0-89.5,41.6-89.5,93S450.6,592.2,500,592.2z"/><path d="M500,10C229.4,10,10,229.4,10,500c0,270.6,219.4,490,490,490c270.6,0,490-219.4,490-490C990,229.4,770.6,10,500,10z M737.4,335.2v55.1v43.2v231.2h-0.2c0,0.6,0.2,1.1,0.2,1.6c0,41.1-31.3,74.3-70.4,76.2v0.4h-1.4H334.3H333v-0.4c-39.1-1.8-70.4-35.1-70.4-76.2c0-0.6,0.1-1.1,0.2-1.6h-0.2V433.5v-43.2v-55.1h0.2c0-0.6-0.2-1.1-0.2-1.6c0-41.1,31.3-74.3,70.4-76.2v-0.4h1.4h331.3h1.4v0.4c39.1,1.8,70.4,35.1,70.4,76.2c0,0.6-0.1,1.1-0.2,1.6H737.4z"/><path d="M637.9,499.3c0,79.1-61.7,143.3-137.9,143.3s-137.9-64.2-137.9-143.3c0-10,1-19.8,2.9-29.3h-52.4v209.7c0,8.3,6.5,15.1,14.5,15.1H673c8,0,14.5-6.8,14.5-15.1V470H635C636.9,479.4,637.9,489.2,637.9,499.3z"/></g></g></symbol><symbol viewBox="0 0 989.9783 989.9783"><g id="src-2" class="icon"><metadata> Svg Vector Icons : http://www.onlinewebfonts.com/icon </metadata><g><path d="M500,10C228,10,10,225.8,10,498.9c1.1,200.4,121.1,381,298.4,452.6c180.6,80.4,411.8,29.7,538.5-104.6c134.3-128.8,185-360.1,104.6-538.5C879.9,130,702.7,12.2,500,10L500,10z M267.7,206l57.3-39.6l24.2,6.6L445,312.8l-2.2,22l-56.2,39.6c-25.3,19.8-8.8,48.5,9.9,98c9.9,18.7,23.1,38.5,38.5,61.7c16.5,22,29.7,38.5,40.8,48.5l17.6,14.3c14.3,13.2,17.6,14.3,27.5,23.1c18.7,11,31.9,15.4,47.4,5.5l54-37.4l20.9,2.2l100.2,136.5l-2.2,23.1l-55.1,41.8C571.6,826,459.3,765.4,349.2,609c-69.4-91.4-106.8-181.7-115.6-239C221.4,276.5,249,220.3,267.7,206z"/></g></g></symbol><symbol viewBox="0 0 990 990.95984"><g id="src-3" class="icon"><metadata> Svg Vector Icons : http://www.onlinewebfonts.com/icon </metadata><g><g transform="translate(0.000000,511.000000) scale(0.100000,-0.100000)"><path d="M4627.7,5004.5C2427.9,4847,612,3225.8,170.9,1020.4c-94.5-472.6-94.5-1354.8,0-1821.7c446.8-2214.1,2239.8-3815.2,4462.5-3984.2c1655.5-126,3265.2,598.6,4282,1930.5C9368-2262.1,9706-1483,9846.3-706.8c71.6,395.3,71.6,1231.6,0,1632.6c-108.8,607.2-343.7,1225.9-664.5,1758.6C8503,3804.4,7297.1,4649.4,5991,4921.5c-243.5,48.7-372.4,63-902.2,97.4C5011.5,5021.7,4802.4,5016,4627.7,5004.5z M5747.6,3566.7c899.4-200.5,1541-739,1876.1-1575.3c200.5-501.2,289.3-1194.4,234.9-1801.6c-100.2-1071.2-572.8-1727.1-1326.1-1827.4c-492.7-68.7-885.1,100.3-1048.3,444l-45.8,94.5L5280.7-1271c-94.5-100.3-229.1-206.2-332.2-260.6c-163.3-85.9-191.9-91.7-475.5-91.7c-280.7,0-312.2,5.7-452.5,83.1C3585.1-1296.8,3381.7-724,3467.6,23.6c126,1077,713.2,1887.5,1457.9,2005c220.5,37.2,564.3,0,776.2-85.9c177.6-68.7,458.3-243.5,478.3-295c5.7-20.1-31.5-532.7-88.8-1140c-60.1-644.5-94.5-1154.3-85.9-1228.8c43-280.7,166.1-401,421.1-401c383.8,0,638.7,280.7,799.1,876.5c85.9,309.3,94.5,1160,17.2,1538.1c-189,930.9-681.7,1495.1-1495.1,1712.8c-343.7,94.5-1054,94.5-1369.1,2.9c-968.1-277.8-1598.2-1085.6-1810.2-2311.4c-68.7-389.5-71.6-1140-5.7-1492.3c169-930.9,687.4-1558.2,1480.8-1787.3c320.8-94.5,950.9-111.7,1317.5-34.4c151.8,31.5,355.2,88.8,455.4,128.9c123.1,48.7,183.3,63,189,40.1c11.5-31.5,128.9-458.3,128.9-466.9c0,0-88.8-43-197.6-94.5c-687.4-315.1-1795.9-292.2-2543.5,54.4C2370.6-2482.6,1820.7-1379.9,1875.1,80.9c28.6,718.9,148.9,1237.4,421,1793c335.1,687.4,787.7,1160,1403.5,1460.8c223.4,108.8,607.2,232,845,269.2C4790.9,3641.1,5509.8,3618.2,5747.6,3566.7z"/><path d="M4919.8,1438.5C4536,1318.3,4269.6,799.8,4183.7,0.7c-71.6-661.6,108.8-1036.9,498.4-1036.9c249.2,0,435.4,146.1,598.6,472.6c65.9,128.9,80.2,232,148.9,959.5c100.3,1105.6,106,1019.7-68.8,1056.9C5174.7,1493,5091.7,1490.1,4919.8,1438.5z"/></g></g></g></symbol><symbol viewBox="0 0 438.54932 433.18396"><g id="src-4" class="icon"><g><path d="M409.132,114.573c-19.608-33.596-46.205-60.194-79.798-79.8C295.736,15.166,259.057,5.365,219.271,5.365   c-39.781,0-76.472,9.804-110.063,29.408c-33.596,19.605-60.192,46.204-79.8,79.8C9.803,148.168,0,184.854,0,224.63   c0,47.78,13.94,90.745,41.827,128.906c27.884,38.164,63.906,64.572,108.063,79.227c5.14,0.954,8.945,0.283,11.419-1.996   c2.475-2.282,3.711-5.14,3.711-8.562c0-0.571-0.049-5.708-0.144-15.417c-0.098-9.709-0.144-18.179-0.144-25.406l-6.567,1.136   c-4.187,0.767-9.469,1.092-15.846,1c-6.374-0.089-12.991-0.757-19.842-1.999c-6.854-1.231-13.229-4.086-19.13-8.559   c-5.898-4.473-10.085-10.328-12.56-17.556l-2.855-6.57c-1.903-4.374-4.899-9.233-8.992-14.559   c-4.093-5.331-8.232-8.945-12.419-10.848l-1.999-1.431c-1.332-0.951-2.568-2.098-3.711-3.429c-1.142-1.331-1.997-2.663-2.568-3.997   c-0.572-1.335-0.098-2.43,1.427-3.289c1.525-0.859,4.281-1.276,8.28-1.276l5.708,0.853c3.807,0.763,8.516,3.042,14.133,6.851   c5.614,3.806,10.229,8.754,13.846,14.842c4.38,7.806,9.657,13.754,15.846,17.847c6.184,4.093,12.419,6.136,18.699,6.136   c6.28,0,11.704-0.476,16.274-1.423c4.565-0.952,8.848-2.383,12.847-4.285c1.713-12.758,6.377-22.559,13.988-29.41   c-10.848-1.14-20.601-2.857-29.264-5.14c-8.658-2.286-17.605-5.996-26.835-11.14c-9.235-5.137-16.896-11.516-22.985-19.126   c-6.09-7.614-11.088-17.61-14.987-29.979c-3.901-12.374-5.852-26.648-5.852-42.826c0-23.035,7.52-42.637,22.557-58.817   c-7.044-17.318-6.379-36.732,1.997-58.24c5.52-1.715,13.706-0.428,24.554,3.853c10.85,4.283,18.794,7.952,23.84,10.994   c5.046,3.041,9.089,5.618,12.135,7.708c17.705-4.947,35.976-7.421,54.818-7.421s37.117,2.474,54.823,7.421l10.849-6.849   c7.419-4.57,16.18-8.758,26.262-12.565c10.088-3.805,17.802-4.853,23.134-3.138c8.562,21.509,9.325,40.922,2.279,58.24   c15.036,16.18,22.559,35.787,22.559,58.817c0,16.178-1.958,30.497-5.853,42.966c-3.9,12.471-8.941,22.457-15.125,29.979   c-6.191,7.521-13.901,13.85-23.131,18.986c-9.232,5.14-18.182,8.85-26.84,11.136c-8.662,2.286-18.415,4.004-29.263,5.146   c9.894,8.562,14.842,22.077,14.842,40.539v60.237c0,3.422,1.19,6.279,3.572,8.562c2.379,2.279,6.136,2.95,11.276,1.995   c44.163-14.653,80.185-41.062,108.068-79.226c27.88-38.161,41.825-81.126,41.825-128.906   C438.536,184.851,428.728,148.168,409.132,114.573z"/></g><g/><g/><g/><g/><g/><g/><g/><g/><g/><g/><g/><g/><g/><g/><g/></g></symbol><symbol viewBox="0 0 112.19601 112.19601"><g id="src-5" class="icon"><g><g><circle cx="56.098" cy="56.098" id="XMLID_11_" r="56.098" style="fill: rgb(77, 118, 161);"/></g><path d="M53.979,80.702h4.403c0,0,1.33-0.146,2.009-0.878   c0.625-0.672,0.605-1.934,0.605-1.934s-0.086-5.908,2.656-6.778c2.703-0.857,6.174,5.71,9.853,8.235   c2.782,1.911,4.896,1.492,4.896,1.492l9.837-0.137c0,0,5.146-0.317,2.706-4.363c-0.2-0.331-1.421-2.993-7.314-8.463   c-6.168-5.725-5.342-4.799,2.088-14.702c4.525-6.031,6.334-9.713,5.769-11.29c-0.539-1.502-3.867-1.105-3.867-1.105l-11.076,0.069   c0,0-0.821-0.112-1.43,0.252c-0.595,0.357-0.978,1.189-0.978,1.189s-1.753,4.667-4.091,8.636c-4.932,8.375-6.904,8.817-7.71,8.297   c-1.875-1.212-1.407-4.869-1.407-7.467c0-8.116,1.231-11.5-2.397-12.376c-1.204-0.291-2.09-0.483-5.169-0.514   c-3.952-0.041-7.297,0.012-9.191,0.94c-1.26,0.617-2.232,1.992-1.64,2.071c0.732,0.098,2.39,0.447,3.269,1.644   c1.135,1.544,1.095,5.012,1.095,5.012s0.652,9.554-1.523,10.741c-1.493,0.814-3.541-0.848-7.938-8.446   c-2.253-3.892-3.954-8.194-3.954-8.194s-0.328-0.804-0.913-1.234c-0.71-0.521-1.702-0.687-1.702-0.687l-10.525,0.069   c0,0-1.58,0.044-2.16,0.731c-0.516,0.611-0.041,1.875-0.041,1.875s8.24,19.278,17.57,28.993   C44.264,81.287,53.979,80.702,53.979,80.702L53.979,80.702z" style="fill-rule: evenodd; clip-rule: evenodd; fill: rgb(255, 255, 255);"/></g><g/><g/><g/><g/><g/><g/><g/><g/><g/><g/><g/><g/><g/><g/><g/></g></symbol></svg>