<svg xmlns="http://www.w3.org/2000/svg" viewBox="0 0 1000 1000" xml:space="preserve" fill="#F9F9F9" width="25" height="25"><path d="M183.8 23.7c107.3-16.7 233.9-6.9 371-6.9 194.1 0 362.4-18.3 412.2 103.1 27.5 67.1 13.7 144.9 13.7 192.4 0 145.2 33.5 494.4-27.5 590.9-10.6 16.7-47.7 50.3-75.6 61.8-90.2 37.1-256.8 13.7-377.9 13.7-205.6 0-410.3 34.6-467.2-103.1C-8.6 776.2 18.8 452 18.8 298.5c0-34.2-12-117.1 13.7-178.6 22.7-54 78.8-84.9 151.3-96.2zm556.5 371c76.7-254.4-299.7-189.8-474-192.3V807c155.6-10.8 388.2 34.8 474.1-61.8 36.1-40.6 56.8-124.1 20.6-199.3-18-37.4-54.2-43.4-89.3-75.6 38.7-22.9 57-36.9 68.6-75.6z"/><path d="M403.7 298.6c53.6 19.6 155-8.4 199.3 20.6 64.7 122.2-84 136.9-199.3 123.7V298.6zM630.4 676.4c-46.8 37.9-143.7 25.8-226.7 27.5V539c131.5-14.5 292.9-1.9 226.7 137.4z"/></svg>