<svg xmlns="http://www.w3.org/2000/svg" viewBox="0 0 1000 1000" xml:space="preserve" width="80" height="80" fill="#F9F9F9"><path d="M586.9 496.5c0 53.7-40.4 97.3-90.3 97.3s-90.3-43.6-90.3-97.3c0-53.7 40.4-97.3 90.3-97.3s90.3 43.6 90.3 97.3zM816.2 329.7l-13.9 41.7h-7l-7-7h-7l-7-7h-20.9l-7-7h-13.9l-13.9-7h-13.9l-13.9-7h-34.7l-13.9-7h-34.7l-13.9-7h-97.3V274h90.3l13.9 7h41.7l7 7H691l7 7h20.9l13.9 7h13.9l7 7h20.9l7 7h13.9l7 7h7l6.7 6.7zm173.6 166.8h-41.7v-13.9l-7-7v-7l-13.9-13.9v-7h-7v-7l-7-7h-7v-7h-7L885.6 413h-7l-13.9-13.9h-7l-7-7h-7l-7-7h-7l-7-7H809l-7-7 13.9-41.7h7l13.9 7h7l7 7h13.9l13.9 13.9h7l13.9 13.9h7l20.9 20.9h7L955 413v7h7l7 7v7l7 7v7l7 7v13.9l7 7v20.6h-.2zM802.3 677.1l-7-41.7 7-7h7l13.9-7h7l13.9-13.9h7l7-7H872l27.8-27.8h7l7-7v-7h7l7-7v-7h7v-7l7-7v-7h7v-27.8H990v34.7h-7V545l-7 7v7l-13.9 13.9v7l-13.9 13.9h-7v7l-20.9 20.9h-7l-13.9 13.9-13.9 7h-7l-13.9 13.9H851l-13.9 13.9h-13.9l-7 7-13.9-.3zm-305.8 48.6v-48.6h111.1l13.9-7h34.8l13.9-7H705l7-7h13.9l13.9-7h13.9l7-7h13.9l7-7h13.9l7 41.7-7 7h-7l-7 7h-13.9l-13.9 7h-13.9l-13.9 7H712l-7 7h-41.7l-7 7h-55.6l-7 7h-97.2v-.1zm-305.7-48.6 13.9-41.7h7l7 7h13.9l7 7h20.9l7 7h13.9l7 7H316l13.9 7h48.6l7 7h111.1V726H392.4l-7-7h-55.6l-7-7H295l-13.9-7h-13.9l-13.9-7h-13.9l-7-7h-20.9l-7-7h-7l-6.7-6.9zM10.2 496.5h41.7v27.8h7v7l7 7v7h7v7L93.7 573h7v7l7 7h7l13.9 13.9h7l7 7h7l13.9 13.9h13.9l7 7h7l13.9 7-14.3 41.5h-13.9l-7-7h-13.9l-13.9-13.9h-7l-13.9-7-7-7h-7l-20.9-20.9h-7L52 593.8v-7h-7L31.2 573v-7l-7-7v-7l-7-7v-13.9l-7-7v-27.6zM177 329.7l13.9 41.7-7 7h-7l-7 7H156l-7 7h-7l-13.9 13.9h-7l-7 7h-7v7l-7 7h-7l-7 7v7h-7l-13.9 13.9v7l-7 7v7h-7v20.9H10v-20.9l7-7v-13.9l7-7v-7l7-7v-7h7l7-7v-7l13.9-13.9h7v-7l13.9-13.9h7l13.9-13.9h7l7-7 13.9-7h7l13.9-13.9H163l7-7h7zm319.5-55.5v48.6h-90.3l-13.9 7h-41.7l-7 7h-27.8l-13.9 7h-27.8l-7 7h-20.9l-7 7h-7l-7 7h-20.9l-7 7h-7l-13.9-41.7 7-7h13.9l7-7h13.9l13.9-7h7l7-7H267l7-7h34.8l7-7h27.8l13.9-7h41.7l13.9-7h83.4v.1z"/><path d="m524.4 100.5 27.8 41.7h-7L531.3 156v7l-48.6 48.6v13.9l-27.8 27.8-7 13.9-13.9 13.9V295l-13.9 13.9-7 13.9-13.9 13.9v13.9l-7 7-7 13.9-7 7-7 13.9v7l-7 13.9-41.7-27.8 7-7 7-13.9 7-7 7-13.9 7-7v-13.9l7-7 7-13.9 7-7 7-13.9 7-7 7-13.9 13.9-13.9v-13.9l20.9-20.9 7-13.9 34.8-34.8 7-13.9 7-7v-7l34.7-34.8-.4.5zm222.3-83.4-20.9 41.7h-7l-7-7H684l-7 7h-13.9l-7 7h-7l-7 7h-7l-7 7h-7l-13.9 13.9h-7l-48.6 48.6-27.8-41.7 27.8-27.8 13.9-7h7l20.9-20.9h7L614.5 31h7l7-7h7l7-7h7l7-7h27.8l7-7h20.9l7 7h13.9l7 7h6.6v.1zM788.4 288l-41.7-7 7-13.9v-41.7l7-7V142l-7-7v-27.8h-7V86.5h-7V72.6h-7v-7h-7v-7l21-41.6v7h7l13.9 13.9v7h7v7l7 7v7l7 7v13.9l7 13.9v27.8l7 13.9v76.4l-7 13.9v48.6l-7.2 6.7zM670.3 614.6l-34.8-27.8 13.9-13.9V559l7-7 7-13.9v-7l7-13.9 7-7v-13.9l7-7 7-13.9v-7l7-7v-13.9l7-7v-13.9l7-7v-7l7-13.9v-7l7-13.9v-7l7-7v-20.9l7-7V315l7-7v-27.8l41.7 7v20.9l-7 7V336l-7 13.9v13.9l-7 13.9v7l-7 13.9v7l-7 7v13.9l-7 7v13.9l-7 7v13.9l-7 7v13.9l-7 7-7 13.9v7l-7 13.9-7 7v14l-7 7-7 13.9v7l-7 13.9-7 7-6.8 13.8zM482.6 892.5l-27.8-34.8 48.6-48.6v-7l7-7 7-13.9 20.9-20.9v-7l7-7 7-13.9 13.9-13.9 7-13.9v-7l7-7 7-13.9 13.9-13.9 7-13.9v-7l7-13.9 7-7 7-13.9v-7l7-13.9 34.8 27.8v7l-7 13.9-7 7-7 13.9-7 7V677l-7 7-7 13.9-7 7-7 13.9-7 7v7l-7 13.9-13.9 13.9-7 13.9-20.9 20.9v13.9L517.4 851l-7 13.9-7 7v7l-7 7h-7l-6.8 6.6zm-229.2 90.3 20.9-41.7h7l7 7H316l7-7h13.9l7-7h13.9l7-7h7l7-7h7v-7l7-7h7l13.9-7 41.7-41.7 27.8 34.7-7 13.9-13.9 7-20.9 20.9h-7L413.3 955l-13.9 7h-7l-7 7h-7l-7 7h-7l-7 7h-7l-7 7h-20.9l-7 7h-27.8l-7-7h-13.9l-7-7-6.4-.2zm-48.7-257.1 41.7 13.9v27.8l-7 7v90.3l7 7v27.8l7 7v13.9h7v7l13.9 13.9-20.9 41.7-27.8-27.8v-7l-7-7v-7l-7-7v-13.9l-7-7v-27.8l-7-13.9v-90.3l7-13.9.1-34.7zm118.2-340.4 41.7 27.8-7 7-7 13.9-7 7v13.9l-7 7-7 13.9v13.9l-7 7-7 13.9v7l-7 13.9-7 7v13.9l-7 7V573l-7 7v13.9l-7 7v13.9l-7 7v13.9l-7 7v20.9l-7 7v20.9l-7 7V719l-7 7v13.9L204.5 726l7-7v-27.8l7-13.9v-20.9l7-7v-13.9l7-7v-13.9l7-7v-13.9l7-7v-13.9l7-7v-13.9l7-7V531l7-13.9v-7l7-13.9 7-7v-13.9l7-7 13.9-27.8v-7l13.9-27.8 7-7-.4-13.4z"/><path d="m204.7 281.1 41.7-13.9 7 7V302l7 13.9v13.9l7 13.9v7l7 13.9v13.9l7 13.9v7l7 13.9v7l7 13.9v7l7 13.9 7 7V476l7 7v13.9l7 7 7 13.9v7l7 13.9 7 7v13.9l7 7 7 13.9 7 7-35.4 27.3-7-13.9-7-7-7-13.9-7-7v-13.9l-7-13.9-7-7v-13.9l-7-7-7-13.9v-7l-13.9-27.8v-7l-7-13.9v-7l-7-13.9v-7l-7-13.9v-7l-7-13.9v-7l-7-13.9v-20.9l-7-7v-20.9l-7-7V288l-6.4-6.9zm48.7-264 20.9 41.7v7h-7v7h-7v7l-7 7v13.9h-7v27.8l-7 7v83.4l7 7v41.7l-41.7 13.9v-48.6l-7-7v-97.3l7-7v-28l7-7V72.7l7-7v-7l13.9-13.9v-7l20.9-20.7zm0 0zm229.2 97.3-27.8 34.8-55.6-55.6h-7l-13.9-13.9h-7l-7-7h-7l-7-7h-13.9l-7-7h-20.9v-7H295l-7 7h-13.9L253.2 17h13.9v-7h69.5l7 7h7l7 7h7l7 7h7l7 7h13.9l20.9 20.9h7L441 72.7l13.9 7 20.9 20.9 6.8 13.8zm187.7 270.9-34.8 27.8-7-13.9v-7l-7-13.9-13.9-13.9v-13.9l-7-7-7-13.9-13.9-13.9v-13.9L559 281.1l-7-13.9v-7l-27.8-27.8-7-13.9v-7l-41.7-41.7v-7l-7-7h-7l-7-7 27.8-34.8 7 7h7l27.8 27.8v13.9l41.7 41.7 7 13.9v7l13.9 13.9 7 13.9 13.9 13.9 7 13.9v7l7 7 7 13.9 13.9 13.9v13.9l7 7 7 13.9 7 7 7 13.9v6.9h-.2zm-34.8 27.8zm159.8 305.7-41.7 7v-7l-7-13.9V691l-7-7v-20.9l-7-13.9v-13.9l-7-13.9v-7l-7-7v-13.9l-7-7v-13.9l-7-7V552L691 538.1v-13.9l-7-7v-13.9l-7-7-7-13.9v-7l-7-13.9-7-7-7-13.9v-7l-7-13.9-7-7 34.8-27.8 7 13.9 7 7 7 13.9v7l7 13.9 7 7 7 13.9v13.9l7 7 7 13.9v7l7 13.9 7 7v13.9l7 7V559l7 7v13.9l7 7v13.9l7 7v13.9l7 7v20.9l7 7v13.9l7 7V705l6.5 13.8zm-48.6 264-20.9-41.7v-7h7v-7h7v-7l7-7v-7l7-7v-27.8l7-7V767l-7-7v-34.8l41.7-7V753l7 7v111.1l-7 7v27.8l-7 7v13.9l-7 7v7l-7 7v7l-27.8 28zm0 0zm-215.4-83.3 27.8-34.8 48.6 48.6h7l7 7h7l7 7h7l7 7h7v7h20.9l7 7H719v-7h7l20.9 41.7h-7l-7 7H719l-7 7h-27.8l-7-7h-20.9l-7-7h-13.9l-7-7h-7l-7-7h-7l-13.9-13.9h-7l-55.2-55.6zM329.8 614.6l34.8-27.8 7 13.9v13.9l7 7 7 13.9 13.9 13.9v13.9l7 7 7 13.9 7 7 7 13.9 13.9 13.9 7 13.9v7l13.9 13.9 7 13.9 34.8 34.8v7l55.6 55.6-27.8 34.8-76.9-76.8-7-13.9-13.9-13.9v-7l-7-13.9-13.9-13.9-7-13.9-13.9-13.9-7-13.9-7-7-7-13.9-7-7V677l-7-7-7-13.9-7-7-13.9-27.8v-6.7h.4z"/></svg>