<svg xmlns="http://www.w3.org/2000/svg"><svg viewBox="0 0 990.0007 990.9592"><g id="src-1"><path d="M462.77 10.55C242.79 26.3 61.2 188.42 17.09 408.96c-9.45 47.26-9.45 135.48 0 182.17 44.68 221.41 223.98 381.52 446.25 398.42 165.55 12.6 326.52-59.86 428.2-193.05 45.26-59.29 79.06-137.2 93.09-214.82 7.16-39.53 7.16-123.16 0-163.26-10.88-60.72-34.37-122.59-66.45-175.86-67.88-112-188.47-196.5-319.08-223.71-24.35-4.87-37.24-6.3-90.22-9.74-7.73-.28-28.64.29-46.11 1.44zm111.99 143.78c89.94 20.05 154.1 73.9 187.61 157.53 20.05 50.12 28.93 119.44 23.49 180.16-10.02 107.12-57.28 172.71-132.61 182.74-49.27 6.87-88.51-10.03-104.83-44.4l-4.58-9.45-15.77 17.19c-9.45 10.03-22.91 20.62-33.22 26.06-16.33 8.59-19.19 9.17-47.55 9.17-28.07 0-31.22-.57-45.25-8.31-43.54-24.34-63.88-81.62-55.29-156.38 12.6-107.7 71.32-188.75 145.79-200.5 22.05-3.72 56.43 0 77.62 8.59 17.76 6.87 45.83 24.35 47.83 29.5.57 2.01-3.15 53.27-8.88 114-6.01 64.45-9.45 115.43-8.59 122.88 4.3 28.07 16.61 40.1 42.11 40.1 38.38 0 63.87-28.07 79.91-87.65 8.59-30.93 9.45-116 1.72-153.81-18.9-93.09-68.17-149.51-149.51-171.28-34.37-9.45-105.4-9.45-136.91-.29-96.81 27.78-159.82 108.56-181.02 231.14-6.87 38.95-7.16 114-.57 149.23 16.9 93.09 68.74 155.82 148.08 178.73 32.08 9.45 95.09 11.17 131.75 3.44 15.18-3.15 35.52-8.88 45.54-12.89 12.31-4.87 18.33-6.3 18.9-4.01 1.15 3.15 12.89 45.83 12.89 46.69 0 0-8.88 4.3-19.76 9.45-68.74 31.51-179.59 29.22-254.35-5.44-102.25-47.26-157.24-157.53-151.8-303.61 2.86-71.89 14.89-123.74 42.1-179.3 33.51-68.74 78.77-116 140.35-146.08 22.34-10.88 60.72-23.2 84.5-26.92 24.63-3.72 96.52-1.43 120.3 3.72z"/><path d="M491.98 367.15c-38.38 12.02-65.02 63.87-73.61 143.78-7.16 66.16 10.88 103.69 49.84 103.69 24.92 0 43.54-14.61 59.86-47.26 6.59-12.89 8.02-23.2 14.89-95.95 10.03-110.56 10.6-101.97-6.88-105.69-18.61-4.02-26.91-3.73-44.1 1.43z"/></g></svg><svg viewBox="0 0 990 990"><g id="src-2"><path d="M500 10C229.4 10 10 229.4 10 500s219.4 490 490 490 490-219.4 490-490S770.6 10 500 10zm291 781c-37.8 37.8-81.8 67.5-130.8 88.2-12.4 5.3-25.1 9.9-37.9 13.9v-73.4c0-38.6-13.2-67-39.7-85.2 16.6-1.6 31.8-3.8 45.7-6.7 13.9-2.9 28.6-7 44-12.4 15.5-5.4 29.3-11.9 41.6-19.4 12.3-7.5 24.1-17.2 35.4-29.2 11.3-12 20.8-25.5 28.5-40.7 7.7-15.2 13.7-33.3 18.2-54.5s6.7-44.6 6.7-70.1c0-49.5-16.1-91.6-48.3-126.3 14.7-38.3 13.1-79.9-4.8-124.9l-12-1.4c-8.3-1-23.2 2.5-44.7 10.5-21.5 8-45.7 21.1-72.5 39.2-38-10.5-77.4-15.8-118.2-15.8-41.2 0-80.4 5.3-117.7 15.8-16.9-11.5-32.9-21-48.1-28.5s-27.3-12.6-36.4-15.3-17.5-4.4-25.4-5-12.8-.8-15.1-.5c-2.2.3-3.8.6-4.8 1-17.9 45.3-19.5 86.9-4.8 124.9-32.2 34.8-48.3 76.9-48.3 126.3 0 25.5 2.2 48.9 6.7 70.1 4.5 21.2 10.5 39.4 18.2 54.5 7.7 15.2 17.1 28.7 28.5 40.7 11.3 12 23.1 21.7 35.4 29.2 12.3 7.5 26.2 14 41.6 19.4 15.5 5.4 30.1 9.6 44 12.4 13.9 2.9 29.1 5.1 45.7 6.7-26.2 17.9-39.2 46.3-39.2 85.2v74.9c-14.4-4.3-28.7-9.4-42.7-15.3-49-20.7-93-50.4-130.8-88.2-37.8-37.8-67.5-81.8-88.2-130.8C99.4 609.5 88.5 555.6 88.5 500c0-55.6 10.9-109.5 32.3-160.2 20.7-49 50.4-93 88.2-130.8 37.8-37.8 81.8-67.5 130.8-88.2C390.6 99.4 444.5 88.5 500 88.5c55.6 0 109.5 10.9 160.2 32.3 49 20.7 93 50.4 130.8 88.2s67.5 81.8 88.2 130.8c21.4 50.7 32.3 104.6 32.3 160.2 0 55.6-10.9 109.5-32.3 160.2-20.7 49-50.4 93-88.2 130.8z"/></g></svg><svg viewBox="0 0 990 990"><g id="src-3"><path d="M621.2 389.1h50.7c8 0 14.5-6.8 14.5-15.1v-52.6c0-8.3-6.5-15.1-14.5-15.1h-50.7c-8 0-14.5 6.8-14.5 15.1V374c0 8.4 6.5 15.1 14.5 15.1zM500 592.2c49.4 0 89.5-41.6 89.5-93s-40.1-93-89.5-93-89.5 41.6-89.5 93 40.1 93 89.5 93z"/><path d="M500 10C229.4 10 10 229.4 10 500s219.4 490 490 490 490-219.4 490-490S770.6 10 500 10zm237.4 325.2v329.5h-.2c0 .6.2 1.1.2 1.6 0 41.1-31.3 74.3-70.4 76.2v.4H333v-.4c-39.1-1.8-70.4-35.1-70.4-76.2 0-.6.1-1.1.2-1.6h-.2V335.2h.2c0-.6-.2-1.1-.2-1.6 0-41.1 31.3-74.3 70.4-76.2v-.4H667.1v.4c39.1 1.8 70.4 35.1 70.4 76.2 0 .6-.1 1.1-.2 1.6h.1z"/><path d="M637.9 499.3c0 79.1-61.7 143.3-137.9 143.3s-137.9-64.2-137.9-143.3c0-10 1-19.8 2.9-29.3h-52.4v209.7c0 8.3 6.5 15.1 14.5 15.1H673c8 0 14.5-6.8 14.5-15.1V470H635c1.9 9.4 2.9 19.2 2.9 29.3z"/></g></svg><svg viewBox="0 0 989.9783 989.9783"><g id="src-4" class="icon"><path d="M500 10C228 10 10 225.8 10 498.9c1.1 200.4 121.1 381 298.4 452.6 180.6 80.4 411.8 29.7 538.5-104.6 134.3-128.8 185-360.1 104.6-538.5C879.9 130 702.7 12.2 500 10zM267.7 206l57.3-39.6 24.2 6.6L445 312.8l-2.2 22-56.2 39.6c-25.3 19.8-8.8 48.5 9.9 98 9.9 18.7 23.1 38.5 38.5 61.7 16.5 22 29.7 38.5 40.8 48.5l17.6 14.3c14.3 13.2 17.6 14.3 27.5 23.1 18.7 11 31.9 15.4 47.4 5.5l54-37.4 20.9 2.2 100.2 136.5-2.2 23.1-55.1 41.8C571.6 826 459.3 765.4 349.2 609c-69.4-91.4-106.8-181.7-115.6-239-12.2-93.5 15.4-149.7 34.1-164z"/></g></svg><svg viewBox="0 0 48 48"><g id="src-5"><path d="M25 2C12.318 2 2 12.318 2 25s10.318 23 23 23c12.683 0 23-10.318 23-23S37.683 2 25 2zm9.973 27.535c2.237 1.986 2.702 2.695 2.778 2.816.927 1.47-1.028 1.649-1.028 1.649h-4.12s-1.003.011-1.86-.557c-1.397-.915-2.86-2.689-3.888-2.381-.863.258-.855 1.424-.855 2.421 0 .357-.307.517-1 .517h-1.288c-2.257 0-4.706-.76-7.149-3.313-3.456-3.609-6.487-10.879-6.487-10.879s-.179-.366.016-.589c.221-.25.822-.218.822-.218L14.909 19s.376.071.646.261c.223.156.347.454.347.454s.671 2.216 1.526 3.629c1.67 2.758 2.447 2.828 3.014 2.531.828-.43.558-3.362.558-3.362s.037-1.259-.395-1.82c-.333-.434-.97-.665-1.248-.701-.225-.029.151-.423.63-.648.64-.285 1.511-.358 3.013-.344 1.169.011 1.506.081 1.962.186 1.379.318 1.038 1.157 1.038 4.103 0 .944-.13 2.271.582 2.711.307.19 1.359.422 3.231-2.618.889-1.442 1.596-3.834 1.596-3.834s.146-.263.373-.393c.232-.133.225-.13.543-.13S35.832 19 36.532 19c.699 0 1.355-.008 1.468.402.162.589-.516 2.607-2.234 4.797-2.823 3.594-3.136 3.258-.793 5.336z"/></g></svg></svg>