<svg width="1954" height="1304" viewBox="0 0 1954 1304" fill="none" xmlns="http://www.w3.org/2000/svg">
<path d="M1207.16 568.251H678.786C670.647 568.251 664.102 574.833 664.102 582.946V941.017C664.102 949.131 671.217 957.471 679.298 957.471H830.9H883.045L876.614 1013.07H836.491V1023.17H875.419H1010.47H1054.52V1013.07H1009.33L1002.9 957.471H1206.65C1214.79 957.471 1221.85 949.074 1221.85 941.017V582.946C1221.85 574.833 1215.3 568.251 1207.16 568.251ZM892.265 1008.02L897.331 962.521H988.618L993.684 1008.02H892.265ZM1206.65 942.322H679.298V876.62H1206.59V942.322H1206.65ZM1206.65 866.464H679.298V618.805H1206.59V866.464H1206.65ZM1206.65 608.705H679.298V583.457H1206.59V608.705H1206.65Z" fill="white"/>
<path d="M824.73 643.762C823.51 645.022 823.467 645.154 823.467 649.409V653.796H821.723H819.979V651.624C819.979 648.887 819.107 647.151 817.366 646.411C814.491 645.238 812.137 647.541 812.137 651.624V653.796H810.393H808.649V651.234C808.649 649.148 808.431 648.41 807.691 647.541C806.166 645.848 804.292 645.673 802.637 647.062C801.417 648.061 801.287 648.497 801.155 650.884L801.025 653.578H768.999C751.395 653.578 730.132 653.621 721.81 653.707L706.646 653.794L705.601 654.881L704.51 655.922V746.108V836.332L705.774 837.592L707.037 838.851H816.059H925.081L926.345 837.592L927.608 836.332V746.108V655.927L926.518 654.885C925.559 653.887 925.168 653.798 921.07 653.798H916.713V651.887C916.713 647.891 914.753 645.589 911.875 646.198C909.87 646.631 908.868 648.283 908.868 651.236V653.798H907.124H905.38V649.411C905.38 645.154 905.337 645.024 904.117 643.765L902.853 642.505H864.426H825.994L824.73 643.762ZM838.282 651.626V653.365H834.579H830.875V651.626V649.888H834.579H838.282V651.626ZM853.098 651.626V653.365H849.613H846.127V651.626V649.888H849.613H853.098V651.626ZM867.911 651.626V653.365H864.426H860.941V651.626V649.888H864.426H867.911V651.626ZM882.727 651.626V653.365H879.241H875.756V651.626V649.888H879.241H882.727V651.626ZM897.977 651.626V653.365H894.273H890.569V651.626V649.888H894.273H897.977V651.626V651.626ZM734.141 690.939C734.141 713.05 734.271 720.955 734.665 721.781C735.362 723.302 737.149 724.171 739.589 724.171H741.549V726.601C741.549 728.687 741.724 729.164 742.813 730.294C745.731 733.203 749.392 730.902 749.392 726.123V724.169H751.09C753.269 724.169 755.404 723.388 755.928 722.43C756.189 721.908 756.362 710.268 756.362 691.415V661.181H760.285H764.207V702.406C764.207 725.081 764.337 743.977 764.469 744.369C764.904 745.411 766.996 746.323 769.131 746.323H771.091L771.267 749.017C771.442 751.232 771.658 751.841 772.66 752.71C774.315 754.101 776.145 754.013 777.757 752.449C778.847 751.362 779.02 750.842 779.02 748.799V746.41L781.634 746.235C783.594 746.106 784.509 745.801 785.251 745.105L786.21 744.106L786.339 702.665L786.426 661.181H853.312H920.198V746.323V831.466H816.059H711.918V829.728V827.989H715.841C720.284 827.989 722.158 827.338 722.813 825.556C723.51 823.732 723.337 822.776 721.985 821.43C720.721 820.214 720.589 820.171 716.321 820.171H711.918V818.432V816.694H716.319C720.589 816.694 720.719 816.651 721.983 815.434C723.421 814 723.551 812.915 722.593 811.047C721.81 809.527 721.197 809.352 716.057 809.18L712.134 809.093V807.355V805.616L716.057 805.53C721.199 805.358 721.81 805.183 722.593 803.662C723.551 801.795 723.421 800.708 721.983 799.275C720.719 798.059 720.587 798.016 716.319 798.016H711.918V796.277V794.539H716.319C720.589 794.539 720.719 794.496 721.983 793.279C723.333 791.934 723.508 790.978 722.811 789.154C722.158 787.372 720.284 786.721 715.838 786.721H711.918V784.982V783.244H716.405C721.024 783.201 721.81 782.983 722.722 781.201C723.508 779.767 723.333 778.639 722.112 777.205C720.979 775.859 720.979 775.859 716.448 775.859H711.918V738.934V702.009H715.841C720.284 702.009 722.158 701.358 722.813 699.576C723.51 697.752 723.337 696.796 721.985 695.45C720.721 694.234 720.589 694.191 716.321 694.191H711.918V692.452V690.714H716.319C720.589 690.714 720.719 690.671 721.983 689.454C723.376 688.02 723.551 686.935 722.593 685.11C721.764 683.461 721.286 683.329 716.23 683.329H711.918V681.59V679.852H715.579C719.979 679.852 721.766 679.287 722.595 677.637C723.553 675.812 723.378 674.727 721.985 673.293C720.721 672.077 720.589 672.034 716.321 672.034H711.918V666.603V661.172H723.03H734.141V690.939ZM748.955 688.941V716.697L745.381 716.611L741.763 716.568L741.633 688.853L741.547 661.181H745.251H748.955V688.941ZM778.934 699.93L778.804 738.723L775.23 738.809L771.613 738.895V700.06V661.181H775.317H779.02L778.934 699.93Z" fill="white"/>
<path d="M829.784 669.392C827.562 670.39 824.642 673.649 823.988 675.864C823.248 678.297 823.248 740.069 823.988 742.502C824.642 744.717 827.562 747.976 829.784 748.974C831.439 749.712 833.445 749.8 864.339 749.8C891.182 749.8 897.412 749.714 898.589 749.192C900.593 748.366 903.122 746.065 904.21 743.979L905.169 742.197L905.298 709.705C905.385 677.342 905.385 677.256 904.47 675.084C903.468 672.694 900.896 670.132 898.587 669.176C897.367 668.654 891.528 668.568 864.337 668.568C833.445 668.568 831.442 668.654 829.784 669.392ZM850.569 676.952C849.697 677.864 849.61 678.429 849.61 682.339V686.726L846.997 686.901C843.293 687.162 842.205 688.247 842.205 691.678V694.197H837.804C833.534 694.197 833.404 694.241 832.14 695.457L830.877 696.717V687.203C830.877 681.425 831.052 677.299 831.312 676.777C831.747 675.994 832.357 675.951 841.638 675.951H851.486L850.569 676.952ZM862.334 676.257C861.114 676.734 860.503 678.951 860.503 682.902V686.813H858.76H857.016V682.469C857.016 678.386 856.929 677.995 855.925 677.038L854.881 675.951L858.889 675.994C861.114 675.996 862.639 676.125 862.334 676.257ZM872.924 677.038C871.922 677.993 871.834 678.384 871.834 682.469V686.813H870.09H868.346V682.73C868.346 678.951 868.26 678.515 867.212 677.299L866.079 675.953H870.044H873.967L872.924 677.038ZM897.542 676.777C897.804 677.299 897.977 681.425 897.977 687.203V696.717L896.714 695.457C895.45 694.241 895.32 694.197 891.05 694.197H886.649V691.851C886.649 688.376 885.472 687.16 881.944 686.899L879.241 686.724V682.466C879.241 678.86 879.112 678.079 878.326 677.081L877.454 675.951H887.259C896.541 675.951 897.107 675.996 897.542 676.777ZM879.241 709.183V724.082H864.426H849.61V709.183V694.284H864.426H879.241V709.183ZM837.586 701.93L842.205 702.104V703.797V705.491H837.629C833.315 705.491 832.967 705.577 831.965 706.578L830.875 707.619V703.493V699.367L831.92 700.584C832.921 701.755 833.14 701.798 837.586 701.93ZM897.977 703.58V707.792L896.843 706.618C895.753 705.531 895.448 705.488 891.179 705.488H886.647V703.795V702.102L891.266 701.927C895.666 701.798 895.928 701.753 896.8 700.625C897.324 699.973 897.802 699.451 897.891 699.451C897.934 699.408 897.977 701.276 897.977 703.58ZM837.629 712.875H842.205V714.569V716.262L837.586 716.436C833.142 716.566 832.924 716.611 831.922 717.782L830.877 718.999V714.873V710.747L831.967 711.788C832.967 712.789 833.315 712.875 837.629 712.875ZM897.977 714.873V719.001L896.932 717.784C895.93 716.611 895.712 716.568 891.268 716.439L886.649 716.264V714.571V712.875H891.182C895.452 712.875 895.757 712.832 896.716 711.788C897.283 711.223 897.806 710.701 897.893 710.701C897.934 710.704 897.977 712.571 897.977 714.873ZM837.802 724.171H842.203V726.69C842.203 730.121 843.293 731.209 846.995 731.467L849.608 731.642V736.029C849.608 739.939 849.695 740.504 850.567 741.414L851.482 742.413H841.634C832.352 742.413 831.742 742.37 831.307 741.587C831.045 741.065 830.872 736.939 830.872 731.161V721.647L832.136 722.907C833.402 724.125 833.531 724.171 837.802 724.171ZM897.542 741.546C897.107 742.372 896.584 742.415 887.259 742.415H877.454L878.326 741.285C879.109 740.287 879.241 739.504 879.241 735.897V731.64L881.944 731.465C885.472 731.204 886.649 729.988 886.649 726.513V724.166H891.05C895.234 724.166 895.45 724.123 896.584 722.95L897.761 721.776L897.891 731.247C897.934 737.289 897.847 741.024 897.542 741.546ZM860.503 735.464C860.503 739.417 861.114 741.632 862.334 742.111C862.639 742.241 861.114 742.372 858.892 742.372L854.883 742.415L855.928 741.328C856.929 740.373 857.018 739.982 857.018 735.897V731.553H858.762H860.506V735.464H860.503ZM871.834 735.9C871.834 739.982 871.92 740.373 872.924 741.331L873.969 742.418H870.047H866.081L867.215 741.072C868.26 739.855 868.348 739.422 868.348 735.641V731.553H870.092H871.836V735.9H871.834Z" fill="white"/>
<path d="M806.864 687.464C803.552 689.245 804.859 694.198 808.651 694.198C810.655 694.198 812.137 692.763 812.137 690.852C812.137 688.898 811.745 688.158 810.35 687.464C808.87 686.681 808.303 686.681 806.864 687.464Z" fill="white"/>
<path d="M796.19 694.631C792.572 696.108 793.444 701.583 797.324 701.583C799.416 701.583 800.766 700.495 801.071 698.498C801.505 695.847 798.63 693.589 796.19 694.631Z" fill="white"/>
<path d="M911.008 694.849C909.35 695.761 908.611 697.758 909.307 699.411C910.832 703.06 916.28 702.016 916.28 698.065C916.278 695.369 913.316 693.589 911.008 694.849Z" fill="white"/>
<path d="M806.211 699.15C803.684 701.278 805.339 705.493 808.695 705.493C810.568 705.493 812.137 703.8 812.137 701.8C812.137 698.585 808.651 697.021 806.211 699.15Z" fill="white"/>
<path d="M794.751 710.529C793.661 711.918 793.574 713.613 794.533 714.959C796.841 718.261 801.897 715.871 801.025 711.918C800.417 709.312 796.408 708.402 794.751 710.529Z" fill="white"/>
<path d="M806.343 709.921C804.208 711.571 804.775 715.395 807.301 716.262C808.87 716.827 809.742 716.609 811.178 715.349C812.528 714.133 812.485 711.614 811.135 710.354C810.001 709.269 807.518 709.054 806.343 709.921Z" fill="white"/>
<path d="M806.211 721.302C802.594 724.343 807.256 729.643 811.003 726.733C811.875 726.039 812.137 725.473 812.137 724.128C812.137 720.737 808.738 719.087 806.211 721.302Z" fill="white"/>
<path d="M910.352 721.302C907.825 723.431 909.48 727.646 912.836 727.646C914.709 727.646 916.278 725.952 916.278 723.953C916.278 720.737 912.793 719.173 910.352 721.302Z" fill="white"/>
<path d="M717.801 728.167C715.535 729.384 715.098 732.164 716.929 733.946C718.279 735.337 720.198 735.337 721.766 733.989C724.947 731.295 721.461 726.125 717.801 728.167Z" fill="white"/>
<path d="M806.168 732.511C804.861 733.989 804.599 735.248 805.339 736.68C806.254 738.462 808.214 739.199 809.958 738.505C811.57 737.854 812.137 736.898 812.137 734.899C812.137 731.903 808.173 730.339 806.168 732.511Z" fill="white"/>
<path d="M716.972 739.851C716.143 740.502 715.838 741.153 715.838 742.197C715.838 744.24 716.187 744.978 717.669 745.715C720.195 747.018 722.984 745.411 722.984 742.631C722.986 739.46 719.499 737.854 716.972 739.851Z" fill="white"/>
<path d="M731.744 740.026L730.654 741.067V751.666C730.654 761.745 730.697 762.353 731.569 763.438L732.441 764.568H743.466C754.316 764.568 754.491 764.568 755.404 763.57C756.276 762.657 756.319 762.178 756.406 751.755L756.449 740.938L755.315 739.939C754.138 738.941 753.965 738.941 743.464 738.941H732.789L731.744 740.026ZM748.955 751.755V757.185H743.507H738.059V751.755V746.324H743.507H748.955V751.755Z" fill="white"/>
<path d="M807.04 742.849C805.776 743.371 804.599 745.672 804.991 746.889C805.514 748.67 806.951 749.798 808.651 749.798C810.655 749.798 812.137 748.364 812.137 746.453C812.137 744.499 811.745 743.759 810.35 743.064C808.957 742.327 808.433 742.284 807.04 742.849Z" fill="white"/>
<path d="M717.801 750.32C716.405 751.058 715.841 752.013 715.841 753.708C715.841 758.009 721.723 758.443 722.987 754.274C723.378 753.014 722.29 750.971 720.851 750.32C719.456 749.669 718.934 749.669 717.801 750.32Z" fill="white"/>
<path d="M803.598 757.619C802.029 758.227 801.244 759.791 801.244 762.267V764.568H799.065C796.668 764.568 794.533 765.437 794.098 766.522C792.878 769.781 794.97 772.386 798.89 772.386H801.244V775.861V779.336H798.89C794.967 779.336 792.878 781.941 794.098 785.2C794.533 786.287 796.668 787.154 799.065 787.154H801.244V790.586V794.017L798.63 794.192C796.67 794.321 795.755 794.625 794.926 795.408C793.836 796.407 793.488 798.363 794.098 799.97C794.533 801.057 796.668 801.924 799.065 801.924H801.287L801.157 805.487L801.027 809.093L798.414 809.223C795.102 809.397 793.838 810.396 793.838 812.872C793.838 815.523 795.277 816.694 798.63 816.694H801.244V819.17C801.287 821.821 801.678 822.733 803.293 823.557C803.989 823.947 816.888 824.079 853.533 824.079H902.858L904.121 822.819C905.212 821.689 905.385 821.212 905.385 819.127V816.694H907.825C909.917 816.694 910.395 816.519 911.529 815.434C913.141 813.784 913.23 811.873 911.704 810.396C910.832 809.484 910.222 809.309 908 809.309H905.387V805.616V801.924H907.825C909.917 801.924 910.395 801.749 911.529 800.664C913.098 799.058 913.186 797.233 911.791 795.583C910.919 794.584 910.309 794.367 908.087 794.192L905.385 794.017V790.586V787.154H907.825C909.917 787.154 910.395 786.979 911.529 785.894C913.098 784.288 913.186 782.463 911.791 780.813C910.919 779.814 910.309 779.597 908.087 779.422L905.385 779.247V775.859V772.47L908.087 772.296C910.309 772.123 910.919 771.905 911.791 770.904C913.186 769.254 913.098 767.43 911.529 765.823C910.439 764.736 909.917 764.563 907.868 764.563H905.471L905.296 761.958C905.166 760.004 904.861 759.092 904.162 758.352L903.161 757.396L853.836 757.31C826.604 757.272 804.076 757.401 803.598 757.619ZM812.137 768.26V771.953H810.393H808.649V768.26V764.568H810.393H812.137V768.26ZM886.649 768.26V771.953H853.314H819.982V768.26V764.568H853.316H886.651V768.26H886.649ZM897.847 768.349L897.934 771.955H895.974H894.057V768.567C894.057 766.699 894.187 765.004 894.362 764.831C894.535 764.659 895.364 764.57 896.235 764.659L897.761 764.788L897.847 768.349ZM812.137 783.248V786.723H810.393H808.649V783.248V779.774H810.393H812.137V783.248ZM886.649 783.248V786.723H853.314H819.982V783.248V779.774H853.316H886.651V783.248H886.649ZM897.89 783.248V786.723H895.974H894.057V783.248V779.774H895.974H897.89V783.248ZM812.137 798.018V801.493H810.393H808.649V798.018V794.544H810.393H812.137V798.018ZM886.649 798.018V801.493H853.314H819.982V798.018V794.544H853.316H886.651V798.018H886.649ZM897.89 798.018V801.493H895.974H894.057V798.018V794.544H895.974H897.89V798.018ZM812.137 813.004V816.696H810.393H808.649V813.004V809.311H810.393H812.137V813.004ZM886.649 813.004V816.696H853.314H819.982V813.004V809.311H853.316H886.651V813.004H886.649ZM897.89 813.004V816.696H895.974H894.057V813.004V809.311H895.974H897.89V813.004Z" fill="white"/>
<path d="M751.265 772.604C748.433 773.778 748.609 778.251 751.527 779.252C754.011 780.121 756.365 778.426 756.365 775.863C756.362 773.169 753.792 771.563 751.265 772.604Z" fill="white"/>
<path d="M763.03 772.3C762.463 772.386 761.637 772.951 761.157 773.56C759.197 776.036 760.852 779.424 763.989 779.424C765.295 779.424 765.949 779.163 766.691 778.251C769.086 775.473 766.777 771.737 763.03 772.3Z" fill="white"/>
<path d="M774.228 772.257C770.7 773.56 770.786 778.208 774.358 779.467C774.793 779.642 775.797 779.51 776.58 779.163C779.631 777.903 779.587 773.821 776.58 772.561C775.751 772.214 775.055 771.953 775.012 771.996C774.925 771.996 774.577 772.128 774.228 772.257Z" fill="white"/>
<path d="M750.612 787.767C749.61 788.504 748.957 790.329 748.957 792.415C748.957 794.11 748.957 794.11 747.213 794.11C742.246 794.11 739.849 797.716 742.813 800.669C743.946 801.756 744.424 801.928 746.516 801.928H748.957V803.667V805.405H746.516C744.424 805.405 743.946 805.58 742.813 806.665C741.419 808.099 741.244 809.184 742.202 811.009C742.899 812.398 744.773 813.224 747.213 813.224H748.868L749.043 815.614C749.173 817.352 749.521 818.307 750.264 819.088L751.265 820.175H763.989H776.712L777.714 819.088C778.454 818.305 778.804 817.35 778.934 815.614L779.109 813.224H780.853C785.734 813.224 788.085 809.618 785.167 806.665C784.033 805.578 783.555 805.405 781.463 805.405H779.02V803.667V801.928H781.461C783.553 801.928 784.031 801.754 785.165 800.669C788.129 797.716 785.732 794.11 780.764 794.11C779.02 794.11 779.02 794.11 779.02 792.415C779.02 790.243 778.237 788.114 777.277 787.592C775.972 786.898 751.527 787.07 750.612 787.767ZM771.483 803.665V812.788H763.989H756.451L756.494 803.665V794.541H763.989H771.483V803.665Z" fill="white"/>
<path d="M1061.22 643.762C1062.44 645.022 1062.48 645.154 1062.48 649.409V653.796H1064.23H1065.97V651.624C1065.97 648.887 1066.84 647.151 1068.58 646.411C1071.46 645.238 1073.81 647.541 1073.81 651.624V653.796H1075.56H1077.3V651.234C1077.3 649.148 1077.52 648.41 1078.26 647.541C1079.78 645.848 1081.66 645.673 1083.31 647.062C1084.53 648.061 1084.66 648.497 1084.79 650.884L1084.92 653.578H1116.95C1134.55 653.578 1155.82 653.621 1164.14 653.707L1179.3 653.794L1180.35 654.881L1181.44 655.922V746.108V836.332L1180.18 837.592L1178.91 838.851H1069.89H960.868L959.604 837.592L958.341 836.332V746.108V655.927L959.431 654.885C960.39 653.887 960.781 653.798 964.879 653.798H969.236V651.887C969.236 647.891 971.196 645.589 974.074 646.198C976.079 646.631 977.081 648.283 977.081 651.236V653.798H978.825H980.569V649.411C980.569 645.154 980.612 645.024 981.832 643.765L983.096 642.505H1021.52H1059.96L1061.22 643.762ZM1047.67 651.626V653.365H1051.37H1055.07V651.626V649.888H1051.37H1047.67V651.626ZM1032.85 651.626V653.365H1036.34H1039.82V651.626V649.888H1036.34H1032.85V651.626ZM1018.04 651.626V653.365H1021.52H1025.01V651.626V649.888H1021.52H1018.04V651.626ZM1003.22 651.626V653.365H1006.71H1010.19V651.626V649.888H1006.71H1003.22V651.626ZM987.972 651.626V653.365H991.676H995.38V651.626V649.888H991.676H987.972V651.626V651.626ZM1151.81 690.939C1151.81 713.05 1151.68 720.955 1151.28 721.781C1150.59 723.302 1148.8 724.171 1146.36 724.171H1144.4V726.601C1144.4 728.687 1144.22 729.164 1143.14 730.294C1140.22 733.203 1136.56 730.902 1136.56 726.123V724.169H1134.86C1132.68 724.169 1130.55 723.388 1130.02 722.43C1129.76 721.908 1129.59 710.268 1129.59 691.415V661.181H1125.66H1121.74V702.406C1121.74 725.081 1121.61 743.977 1121.48 744.369C1121.05 745.411 1118.95 746.323 1116.82 746.323H1114.86L1114.68 749.017C1114.51 751.232 1114.29 751.841 1113.29 752.71C1111.63 754.101 1109.8 754.013 1108.19 752.449C1107.1 751.362 1106.93 750.842 1106.93 748.799V746.41L1104.32 746.235C1102.36 746.106 1101.44 745.801 1100.7 745.105L1099.74 744.106L1099.61 702.665L1099.52 661.181H1032.64H965.751V746.323V831.466H1069.89H1174.03V829.728V827.989H1170.11C1165.66 827.989 1163.79 827.338 1163.14 825.556C1162.44 823.732 1162.61 822.776 1163.96 821.43C1165.23 820.214 1165.36 820.171 1169.63 820.171H1174.03V818.432V816.694H1169.63C1165.36 816.694 1165.23 816.651 1163.97 815.434C1162.53 814 1162.4 812.915 1163.36 811.047C1164.14 809.527 1164.75 809.352 1169.89 809.18L1173.81 809.093V807.355V805.616L1169.89 805.53C1164.75 805.358 1164.14 805.183 1163.36 803.662C1162.4 801.795 1162.53 800.708 1163.97 799.275C1165.23 798.059 1165.36 798.016 1169.63 798.016H1174.03V796.277V794.539H1169.63C1165.36 794.539 1165.23 794.496 1163.97 793.279C1162.62 791.934 1162.44 790.978 1163.14 789.154C1163.79 787.372 1165.66 786.721 1170.11 786.721H1174.03V784.982V783.244H1169.54C1164.92 783.201 1164.14 782.983 1163.23 781.201C1162.44 779.767 1162.62 778.639 1163.84 777.205C1164.97 775.859 1164.97 775.859 1169.5 775.859H1174.03V738.934V702.009H1170.11C1165.66 702.009 1163.79 701.358 1163.14 699.576C1162.44 697.752 1162.61 696.796 1163.96 695.45C1165.23 694.234 1165.36 694.191 1169.63 694.191H1174.03V692.452V690.714H1169.63C1165.36 690.714 1165.23 690.671 1163.97 689.454C1162.57 688.02 1162.4 686.935 1163.36 685.11C1164.18 683.46 1164.66 683.329 1169.72 683.329H1174.03V681.59V679.852H1170.37C1165.97 679.852 1164.18 679.287 1163.35 677.637C1162.4 675.812 1162.57 674.727 1163.96 673.293C1165.23 672.077 1165.36 672.034 1169.63 672.034H1174.03V666.603V661.172H1162.92H1151.81V690.939ZM1136.99 688.941V716.697L1140.57 716.611L1144.19 716.568L1144.32 688.853L1144.4 661.181H1140.7H1136.99V688.941ZM1107.02 699.93L1107.14 738.723L1110.72 738.809L1114.34 738.895V700.06V661.181H1110.63H1106.93L1107.02 699.93Z" fill="white"/>
<path d="M1056.16 669.392C1058.39 670.39 1061.31 673.649 1061.96 675.864C1062.7 678.297 1062.7 740.069 1061.96 742.502C1061.31 744.717 1058.39 747.976 1056.16 748.974C1054.51 749.712 1052.5 749.8 1021.61 749.8C994.767 749.8 988.537 749.714 987.36 749.192C985.356 748.366 982.827 746.065 981.739 743.979L980.78 742.197L980.651 709.705C980.564 677.342 980.564 677.256 981.479 675.084C982.481 672.694 985.053 670.132 987.362 669.176C988.582 668.654 994.421 668.568 1021.61 668.568C1052.5 668.568 1054.51 668.654 1056.16 669.392ZM1035.38 676.952C1036.25 677.864 1036.34 678.429 1036.34 682.339V686.726L1038.95 686.901C1042.66 687.162 1043.74 688.247 1043.74 691.678V694.197H1048.14C1052.42 694.197 1052.55 694.241 1053.81 695.457L1055.07 696.717V687.203C1055.07 681.425 1054.9 677.299 1054.64 676.777C1054.2 675.994 1053.59 675.951 1044.31 675.951H1034.46L1035.38 676.952ZM1023.62 676.257C1024.84 676.734 1025.45 678.951 1025.45 682.902V686.813H1027.19H1028.93V682.469C1028.93 678.386 1029.02 677.995 1030.02 677.038L1031.07 675.951L1027.06 675.994C1024.84 675.996 1023.31 676.125 1023.62 676.257ZM1013.02 677.038C1014.03 677.993 1014.12 678.384 1014.12 682.469V686.813H1015.86H1017.6V682.73C1017.6 678.951 1017.69 678.515 1018.74 677.299L1019.87 675.953H1015.9H1011.98L1013.02 677.038ZM988.407 676.777C988.145 677.299 987.972 681.425 987.972 687.203V696.717L989.235 695.457C990.499 694.241 990.629 694.197 994.899 694.197H999.3V691.851C999.3 688.376 1000.48 687.16 1004.01 686.899L1006.71 686.724V682.466C1006.71 678.86 1006.84 678.079 1007.62 677.081L1008.49 675.951H998.69C989.408 675.951 988.842 675.996 988.407 676.777ZM1006.71 709.183V724.082H1021.52H1036.34V709.183V694.284H1021.52H1006.71V709.183ZM1048.36 701.93L1043.74 702.104V703.797V705.491H1048.32C1052.63 705.491 1052.98 705.577 1053.98 706.578L1055.07 707.619V703.493V699.367L1054.03 700.584C1053.03 701.755 1052.81 701.798 1048.36 701.93ZM987.972 703.58V707.792L989.106 706.618C990.196 705.531 990.501 705.488 994.77 705.488H999.302V703.795V702.102L994.683 701.927C990.283 701.798 990.021 701.753 989.149 700.625C988.625 699.973 988.147 699.451 988.058 699.451C988.015 699.408 987.972 701.276 987.972 703.58ZM1048.32 712.875H1043.74V714.569V716.262L1048.36 716.436C1052.81 716.566 1053.03 716.611 1054.03 717.782L1055.07 718.999V714.873V710.747L1053.98 711.788C1052.98 712.789 1052.63 712.875 1048.32 712.875ZM987.972 714.873V719.001L989.017 717.784C990.019 716.611 990.237 716.568 994.681 716.439L999.3 716.264V714.571V712.875H994.767C990.497 712.875 990.192 712.832 989.233 711.788C988.666 711.223 988.143 710.701 988.056 710.701C988.015 710.704 987.972 712.571 987.972 714.873ZM1048.15 724.171H1043.75V726.69C1043.75 730.121 1042.66 731.209 1038.95 731.467L1036.34 731.642V736.029C1036.34 739.939 1036.25 740.504 1035.38 741.414L1034.47 742.413H1044.32C1053.6 742.413 1054.21 742.37 1054.64 741.587C1054.9 741.065 1055.08 736.939 1055.08 731.161V721.647L1053.81 722.907C1052.55 724.125 1052.42 724.171 1048.15 724.171ZM988.407 741.546C988.842 742.372 989.365 742.415 998.69 742.415H1008.49L1007.62 741.285C1006.84 740.287 1006.71 739.504 1006.71 735.897V731.64L1004.01 731.465C1000.48 731.204 999.3 729.988 999.3 726.513V724.166H994.899C990.715 724.166 990.499 724.123 989.365 722.95L988.188 721.776L988.058 731.247C988.015 737.289 988.102 741.024 988.407 741.546ZM1025.45 735.464C1025.45 739.417 1024.84 741.632 1023.62 742.111C1023.31 742.241 1024.84 742.372 1027.06 742.372L1031.07 742.415L1030.02 741.328C1029.02 740.373 1028.93 739.982 1028.93 735.897V731.553H1027.19H1025.44V735.464H1025.45ZM1014.12 735.9C1014.12 739.982 1014.03 740.373 1013.02 741.331L1011.98 742.418H1015.9H1019.87L1018.73 741.072C1017.69 739.855 1017.6 739.422 1017.6 735.641V731.553H1015.86H1014.11V735.9H1014.12Z" fill="white"/>
<path d="M1079.08 687.464C1082.4 689.245 1081.09 694.198 1077.3 694.198C1075.29 694.198 1073.81 692.763 1073.81 690.852C1073.81 688.898 1074.2 688.158 1075.6 687.464C1077.08 686.681 1077.65 686.681 1079.08 687.464Z" fill="white"/>
<path d="M1089.76 694.631C1093.38 696.108 1092.5 701.583 1088.63 701.583C1086.53 701.583 1085.18 700.495 1084.88 698.498C1084.44 695.847 1087.32 693.589 1089.76 694.631Z" fill="white"/>
<path d="M974.941 694.849C976.599 695.761 977.338 697.758 976.642 699.411C975.117 703.06 969.669 702.016 969.669 698.065C969.671 695.369 972.633 693.589 974.941 694.849Z" fill="white"/>
<path d="M1079.74 699.15C1082.26 701.278 1080.61 705.493 1077.25 705.493C1075.38 705.493 1073.81 703.8 1073.81 701.8C1073.81 698.585 1077.3 697.021 1079.74 699.15Z" fill="white"/>
<path d="M1091.2 710.529C1092.29 711.918 1092.37 713.613 1091.42 714.959C1089.11 718.261 1084.05 715.871 1084.92 711.918C1085.53 709.312 1089.54 708.402 1091.2 710.529Z" fill="white"/>
<path d="M1079.61 709.921C1081.74 711.571 1081.17 715.395 1078.65 716.262C1077.08 716.827 1076.21 716.609 1074.77 715.349C1073.42 714.133 1073.46 711.614 1074.81 710.354C1075.95 709.269 1078.43 709.054 1079.61 709.921Z" fill="white"/>
<path d="M1079.74 721.302C1083.36 724.343 1078.69 729.643 1074.95 726.733C1074.07 726.039 1073.81 725.474 1073.81 724.128C1073.81 720.737 1077.21 719.087 1079.74 721.302Z" fill="white"/>
<path d="M975.597 721.302C978.124 723.431 976.469 727.646 973.113 727.646C971.24 727.646 969.671 725.952 969.671 723.953C969.671 720.737 973.156 719.173 975.597 721.302Z" fill="white"/>
<path d="M1168.15 728.167C1170.41 729.384 1170.85 732.164 1169.02 733.946C1167.67 735.337 1165.75 735.337 1164.18 733.989C1161 731.295 1164.49 726.125 1168.15 728.167Z" fill="white"/>
<path d="M1079.78 732.511C1081.09 733.989 1081.35 735.248 1080.61 736.68C1079.69 738.462 1077.73 739.199 1075.99 738.505C1074.38 737.854 1073.81 736.898 1073.81 734.899C1073.81 731.903 1077.78 730.339 1079.78 732.511Z" fill="white"/>
<path d="M1168.98 739.851C1169.81 740.502 1170.11 741.154 1170.11 742.198C1170.11 744.24 1169.76 744.978 1168.28 745.715C1165.75 747.018 1162.96 745.411 1162.96 742.631C1162.96 739.461 1166.45 737.854 1168.98 739.851Z" fill="white"/>
<path d="M1154.2 740.026L1155.3 741.067V751.666C1155.3 761.745 1155.25 762.353 1154.38 763.438L1153.51 764.568H1142.48C1131.63 764.568 1131.46 764.568 1130.55 763.57C1129.67 762.657 1129.63 762.178 1129.54 751.755L1129.5 740.938L1130.63 739.939C1131.81 738.941 1131.98 738.941 1142.49 738.941H1153.16L1154.2 740.026ZM1136.99 751.755V757.185H1142.44H1147.89V751.755V746.324H1142.44H1136.99V751.755Z" fill="white"/>
<path d="M1078.91 742.849C1080.17 743.371 1081.35 745.672 1080.96 746.889C1080.43 748.67 1079 749.798 1077.3 749.798C1075.29 749.798 1073.81 748.364 1073.81 746.453C1073.81 744.499 1074.2 743.759 1075.6 743.064C1076.99 742.327 1077.52 742.284 1078.91 742.849Z" fill="white"/>
<path d="M1168.15 750.32C1169.54 751.058 1170.11 752.013 1170.11 753.708C1170.11 758.009 1164.23 758.443 1162.96 754.274C1162.57 753.014 1163.66 750.971 1165.1 750.32C1166.49 749.669 1167.01 749.669 1168.15 750.32Z" fill="white"/>
<path d="M1082.35 757.619C1083.92 758.227 1084.71 759.791 1084.71 762.267V764.568H1086.88C1089.28 764.568 1091.42 765.437 1091.85 766.522C1093.07 769.781 1090.98 772.386 1087.06 772.386H1084.71V775.861V779.336H1087.06C1090.98 779.336 1093.07 781.941 1091.85 785.2C1091.42 786.287 1089.28 787.154 1086.88 787.154H1084.71V790.586V794.017L1087.32 794.192C1089.28 794.321 1090.19 794.625 1091.02 795.408C1092.11 796.407 1092.46 798.363 1091.85 799.97C1091.42 801.057 1089.28 801.924 1086.88 801.924H1084.66L1084.79 805.487L1084.92 809.093L1087.53 809.223C1090.85 809.397 1092.11 810.396 1092.11 812.872C1092.11 815.523 1090.67 816.694 1087.32 816.694H1084.71V819.17C1084.66 821.821 1084.27 822.733 1082.66 823.557C1081.96 823.947 1069.06 824.079 1032.42 824.079H983.091L981.828 822.819C980.737 821.689 980.564 821.212 980.564 819.127V816.694H978.124C976.032 816.694 975.554 816.519 974.42 815.434C972.808 813.784 972.719 811.873 974.245 810.396C975.117 809.484 975.727 809.309 977.949 809.309H980.562V805.616V801.924H978.124C976.032 801.924 975.554 801.749 974.42 800.664C972.851 799.058 972.763 797.233 974.158 795.583C975.03 794.584 975.64 794.367 977.862 794.192L980.564 794.017V790.586V787.154H978.124C976.032 787.154 975.554 786.979 974.42 785.894C972.851 784.288 972.763 782.463 974.158 780.813C975.03 779.814 975.64 779.597 977.862 779.422L980.564 779.247V775.859V772.47L977.862 772.296C975.64 772.123 975.03 771.905 974.158 770.904C972.763 769.254 972.851 767.43 974.42 765.823C975.51 764.736 976.032 764.563 978.081 764.563H980.478L980.653 761.958C980.783 760.004 981.088 759.092 981.787 758.352L982.788 757.396L1032.11 757.31C1059.35 757.272 1081.87 757.401 1082.35 757.619ZM1073.81 768.26V771.953H1075.56H1077.3V768.26V764.568H1075.56H1073.81V768.26ZM999.3 768.26V771.953H1032.63H1065.97V768.26V764.568H1032.63H999.298V768.26H999.3ZM988.102 768.349L988.015 771.955H989.975H991.892V768.567C991.892 766.699 991.762 765.004 991.587 764.831C991.414 764.659 990.585 764.57 989.713 764.659L988.188 764.788L988.102 768.349ZM1073.81 783.248V786.723H1075.56H1077.3V783.248V779.774H1075.56H1073.81V783.248ZM999.3 783.248V786.723H1032.63H1065.97V783.248V779.774H1032.63H999.298V783.248H999.3ZM988.058 783.248V786.723H989.975H991.892V783.248V779.774H989.975H988.058V783.248ZM1073.81 798.018V801.493H1075.56H1077.3V798.018V794.544H1075.56H1073.81V798.018ZM999.3 798.018V801.493H1032.63H1065.97V798.018V794.544H1032.63H999.298V798.018H999.3ZM988.058 798.018V801.493H989.975H991.892V798.018V794.544H989.975H988.058V798.018ZM1073.81 813.004V816.696H1075.56H1077.3V813.004V809.311H1075.56H1073.81V813.004ZM999.3 813.004V816.696H1032.63H1065.97V813.004V809.311H1032.63H999.298V813.004H999.3ZM988.058 813.004V816.696H989.975H991.892V813.004V809.311H989.975H988.058V813.004Z" fill="white"/>
<path d="M1134.68 772.604C1137.52 773.778 1137.34 778.251 1134.42 779.252C1131.94 780.121 1129.58 778.426 1129.58 775.863C1129.59 773.169 1132.16 771.563 1134.68 772.604Z" fill="white"/>
<path d="M1122.92 772.3C1123.49 772.386 1124.31 772.951 1124.79 773.56C1126.75 776.036 1125.1 779.424 1121.96 779.424C1120.65 779.424 1120 779.163 1119.26 778.251C1116.86 775.473 1119.17 771.737 1122.92 772.3Z" fill="white"/>
<path d="M1111.72 772.257C1115.25 773.56 1115.16 778.208 1111.59 779.467C1111.16 779.642 1110.15 779.51 1109.37 779.163C1106.32 777.903 1106.36 773.821 1109.37 772.561C1110.2 772.214 1110.89 771.953 1110.94 771.996C1111.02 771.996 1111.37 772.128 1111.72 772.257Z" fill="white"/>
<path d="M1135.34 787.767C1136.34 788.504 1136.99 790.329 1136.99 792.415C1136.99 794.11 1136.99 794.11 1138.74 794.11C1143.7 794.11 1146.1 797.716 1143.14 800.669C1142 801.756 1141.52 801.928 1139.43 801.928H1136.99V803.667V805.405H1139.43C1141.52 805.405 1142 805.58 1143.14 806.665C1144.53 808.099 1144.7 809.184 1143.75 811.009C1143.05 812.398 1141.18 813.224 1138.74 813.224H1137.08L1136.91 815.614C1136.78 817.352 1136.43 818.307 1135.69 819.088L1134.68 820.175H1121.96H1109.24L1108.24 819.088C1107.5 818.305 1107.14 817.35 1107.02 815.614L1106.84 813.224H1105.1C1100.22 813.224 1097.86 809.618 1100.78 806.665C1101.92 805.578 1102.39 805.405 1104.49 805.405H1106.93V803.667V801.928H1104.49C1102.4 801.928 1101.92 801.754 1100.78 800.669C1097.82 797.716 1100.22 794.11 1105.18 794.11C1106.93 794.11 1106.93 794.11 1106.93 792.415C1106.93 790.243 1107.71 788.114 1108.67 787.592C1109.98 786.898 1134.42 787.07 1135.34 787.767ZM1114.47 803.665V812.788H1121.96H1129.5L1129.45 803.665V794.541H1121.96H1114.47V803.665Z" fill="white"/>
<path d="M660.424 479.472C656.958 480.621 655.046 484.347 656.174 487.89C657.274 491.384 661.126 493.288 664.543 492.168C668.057 490.991 669.92 487.293 668.792 483.75C667.693 480.256 663.939 478.295 660.424 479.472ZM665.699 484.75C666.263 486.521 665.307 488.384 663.585 488.92C661.842 489.533 659.979 488.577 659.415 486.805C658.801 485.062 659.758 483.199 661.529 482.635C663.223 482.05 665.086 483.007 665.699 484.75Z" fill="white"/>
<path d="M657.333 469.919C648.631 472.781 643.878 482.144 646.719 490.924C649.56 499.704 658.952 504.506 667.732 501.665C676.512 498.824 681.236 489.411 678.346 480.66C675.456 471.908 666.036 467.057 657.333 469.919ZM675.126 481.667C677.452 488.647 673.684 496.196 666.676 498.473C659.667 500.75 652.138 496.905 649.861 489.896C647.535 482.916 651.352 475.338 658.361 473.061C665.37 470.784 672.849 474.658 675.126 481.667Z" fill="white"/>
<path d="M689.448 466.516L687.902 467.016C687.017 465.823 686.005 464.638 684.951 463.608L685.726 462.112C687.387 458.859 686.052 454.845 682.771 453.135L676.865 450.057C673.563 448.424 669.599 449.73 667.938 452.983L667.134 454.43C665.697 454.211 664.19 454.098 662.712 454.034L662.134 452.467C661.035 448.973 657.232 447.04 653.688 448.168L647.326 450.202C643.861 451.351 641.949 455.077 643.126 458.592L643.654 460.187C642.461 461.073 641.325 462.056 640.295 463.11L638.778 462.412C635.497 460.702 631.532 462.008 629.871 465.261L626.821 471.216C625.189 474.518 626.474 478.56 629.804 480.242L631.272 480.968C631.004 482.433 630.891 483.94 630.933 485.489L629.337 486.017C625.871 487.166 623.91 490.92 625.087 494.435L627.171 500.768C628.32 504.234 632.123 506.167 635.617 505.067L637.213 504.539C638.098 505.732 639.061 506.946 640.163 507.947L639.438 509.415C637.756 512.745 639.09 516.759 642.392 518.392L648.348 521.442C651.6 523.103 655.593 521.846 657.255 518.593L658.029 517.097C659.466 517.316 660.973 517.429 662.501 517.464L663.001 519.011C664.227 522.497 667.953 524.41 671.447 523.31L677.781 521.226C681.274 520.126 683.208 516.323 682.03 512.809L681.531 511.262C682.723 510.377 683.81 509.422 684.89 508.34L686.386 509.114C689.667 510.825 693.681 509.49 695.342 506.237L698.342 500.311C699.975 497.009 698.69 492.966 695.437 491.305L693.892 490.559C694.16 489.093 694.273 487.586 694.259 486.087L695.855 485.559C699.3 484.488 701.233 480.684 700.084 477.219L698.021 470.808C696.717 467.301 692.963 465.339 689.448 466.516ZM694.724 471.794L696.758 478.156C697.372 479.899 696.415 481.762 694.644 482.326L693.997 482.568L690.728 483.604C690.981 486.538 690.698 489.454 690.028 492.266L693.097 493.836L693.753 494.178C695.404 494.994 696.033 496.991 695.216 498.642L692.216 504.569C691.371 506.171 689.403 506.848 687.752 506.032L687.124 505.739L684.026 504.12C682.198 506.289 679.975 508.228 677.476 509.802L678.561 513.042L678.754 513.717C679.339 515.411 678.362 517.352 676.59 517.916L670.306 519.971C668.534 520.535 666.72 519.551 666.136 517.857L665.893 517.21L664.78 513.92C661.818 514.124 658.951 513.812 656.139 513.142L654.548 516.289L654.206 516.945C653.41 518.519 651.393 519.225 649.742 518.408L643.787 515.358C642.185 514.514 641.507 512.546 642.295 510.845L642.637 510.189L644.208 507.12C642.01 505.243 640.022 503.048 638.497 500.521L635.306 501.577L634.631 501.77C632.859 502.334 630.996 501.378 630.461 499.655L628.349 493.273C627.735 491.529 628.741 489.638 630.512 489.074L631.187 488.881L634.309 487.931C634.056 484.996 634.388 482.052 635.058 479.24L631.912 477.649L631.255 477.307C629.604 476.491 628.976 474.494 629.792 472.843L632.842 466.888C633.638 465.315 635.655 464.609 637.306 465.425L641.032 467.337C642.909 465.14 645.082 463.229 647.582 461.655L646.469 458.365L646.247 457.641C645.712 455.919 646.59 454.035 648.362 453.471L654.675 451.465C656.446 450.901 658.309 451.857 658.894 453.551L659.087 454.226L660.2 457.516C663.134 457.263 666.05 457.546 668.841 458.294L670.774 454.491C671.57 452.917 673.587 452.211 675.238 453.028L681.193 456.078C682.844 456.894 683.501 458.94 682.685 460.591L682.343 461.247L680.752 464.394C682.949 466.271 684.937 468.465 686.491 471.042L689.731 469.958L690.378 469.715C692.248 469.095 694.111 470.051 694.724 471.794Z" fill="white"/>
<path d="M703.416 412.838C696.854 411.122 690.169 414.981 688.452 421.543C686.736 428.105 690.644 434.761 697.136 436.584C703.698 438.3 710.383 434.441 712.099 427.879C713.894 421.338 709.957 414.632 703.416 412.838ZM709.773 427.256C708.382 432.45 703.052 435.593 697.858 434.201C692.663 432.809 689.492 427.431 690.905 422.158C692.268 416.915 697.626 413.821 702.849 415.262C708.065 416.577 711.186 421.984 709.773 427.256Z" fill="white"/>
<path d="M695.634 423.426C694.9 426.013 696.46 428.716 699.125 429.472C701.712 430.206 704.415 428.646 705.044 425.989C705.779 423.402 704.218 420.698 701.553 419.943C698.946 419.286 696.291 420.818 695.634 423.426ZM702.69 425.316C702.336 426.634 701.009 427.401 699.72 427.097C698.402 426.743 697.607 425.367 697.939 424.127C698.293 422.809 699.62 422.042 700.938 422.396C702.227 422.7 702.994 424.027 702.69 425.316Z" fill="white"/>
<path d="M718.368 441.234L717.744 440.153C718.459 439.347 719.145 438.492 719.725 437.567L720.888 437.879C723.496 438.536 726.199 436.975 726.934 434.388L728.172 429.61C728.879 426.974 727.297 424.348 724.71 423.613L723.547 423.301C723.458 422.239 723.263 421.106 723.096 420.023L724.128 419.427C726.439 418.093 727.249 415.069 725.887 412.71L723.418 408.434C722.084 406.123 719.109 405.285 716.75 406.647L715.718 407.243C714.912 406.528 714.008 405.871 713.104 405.213L713.416 404.05C714.122 401.414 712.561 398.711 709.925 398.004L705.196 396.737C702.609 396.002 699.905 397.563 699.199 400.199L698.887 401.362C697.747 401.431 696.664 401.597 695.609 401.813L694.985 400.732C693.651 398.422 690.627 397.611 688.317 398.945L684.09 401.386C681.779 402.72 680.92 405.772 682.282 408.131L682.878 409.163C682.164 409.969 681.506 410.873 680.897 411.749L679.734 411.437C677.098 410.731 674.395 412.292 673.689 414.928L672.45 419.706C671.743 422.342 673.325 424.968 675.912 425.703L677.075 426.014C677.115 427.105 677.282 428.189 677.526 429.293L676.445 429.917C674.134 431.251 673.324 434.275 674.658 436.585L677.127 440.861C678.489 443.221 681.435 444.01 683.795 442.648L684.876 442.024C685.661 442.816 686.537 443.424 687.518 444.103L687.207 445.266C686.549 447.873 688.11 450.577 690.697 451.312L695.427 452.579C698.063 453.285 700.717 451.753 701.472 449.088L701.735 447.954C702.875 447.885 703.958 447.718 705.013 447.503L705.638 448.584C707 450.943 709.995 451.704 712.355 450.342L716.582 447.902C718.969 446.589 719.702 443.544 718.368 441.234ZM715.971 441.963L716.226 442.405C716.908 443.585 716.464 445.086 715.361 445.788L711.134 448.229C709.955 448.91 708.453 448.466 707.801 447.335L707.517 446.844L706.24 444.632C704.243 445.26 702.076 445.594 699.936 445.519L699.292 447.922L699.196 448.437C698.814 449.706 697.438 450.5 696.197 450.168L691.468 448.9C690.15 448.547 689.355 447.171 689.737 445.902L689.911 445.409L690.555 443.005C688.635 441.951 686.974 440.55 685.51 439.036L683.299 440.313L682.856 440.568C681.676 441.249 680.203 440.855 679.522 439.675L677.004 435.427C676.323 434.247 676.767 432.746 677.898 432.093L680.601 430.532C680.022 428.508 679.688 426.341 679.735 424.151L677.282 423.535L676.789 423.362C675.471 423.009 674.704 421.681 675.057 420.363L676.325 415.634C676.678 414.316 678.054 413.521 679.323 413.903L679.817 414.077L682.22 414.721C683.275 412.801 684.598 411.12 686.112 409.656L684.579 407.001C683.898 405.822 684.265 404.3 685.444 403.618L689.671 401.178C690.802 400.525 692.353 400.941 693.005 402.071L693.289 402.563L694.509 404.676C696.534 404.097 698.673 403.714 700.813 403.789L701.457 401.386L701.553 400.872C701.907 399.554 703.283 398.759 704.552 399.141L709.281 400.408C710.599 400.761 711.365 402.088 711.012 403.406L710.838 403.9L710.223 406.352C712.093 407.435 713.775 408.758 715.239 410.272L717.45 408.995L717.893 408.74C719.072 408.059 720.574 408.503 721.227 409.633L723.745 413.881C724.426 415.061 723.982 416.562 722.851 417.215L722.36 417.499L720.148 418.776C720.756 420.85 721.061 422.967 721.014 425.157L723.467 425.773L723.96 425.946C725.278 426.3 726.045 427.627 725.691 428.945L724.424 433.674C724.043 434.943 722.666 435.738 721.426 435.405L720.932 435.232L718.529 434.588C717.474 436.507 716.151 438.188 714.637 439.652L715.971 441.963V441.963Z" fill="white"/>
<path d="M784.834 436.939C781.084 442.25 782.469 449.643 787.828 453.364C793.139 457.114 800.511 455.807 804.204 450.398C807.876 445.066 806.569 437.694 801.209 433.973C795.899 430.223 788.555 431.579 784.834 436.939ZM799.402 447.075C797.605 449.751 793.856 450.409 791.2 448.534C788.496 446.687 787.867 442.987 789.664 440.311C791.539 437.656 795.211 436.977 797.915 438.824C800.571 440.699 801.249 444.371 799.402 447.075Z" fill="white"/>
<path d="M770.294 426.852C761.026 440.199 764.395 458.636 777.771 467.953C791.146 477.271 809.561 473.979 818.752 460.611C827.992 447.215 824.623 428.779 811.248 419.461C797.873 410.144 779.506 413.407 770.294 426.852ZM813.894 457.19C806.5 467.882 791.834 470.516 781.163 463.045C770.443 455.603 767.731 440.915 775.145 430.147C782.539 419.455 797.205 416.82 807.974 424.235C818.673 431.755 821.287 446.499 813.894 457.19Z" fill="white"/>
<path d="M846.405 416.334L843.514 416.889C842.229 414.55 840.826 412.346 839.246 410.178L840.932 407.763C844.604 402.431 843.297 395.059 837.937 391.338L828.199 384.573C822.888 380.824 815.516 382.131 811.844 387.462L810.207 389.849C807.621 389.114 805.041 388.506 802.428 388.18L801.873 385.289C800.725 378.874 794.595 374.614 788.152 375.713L776.581 377.806C770.165 378.954 765.954 385.055 767.131 391.519L767.657 394.361C765.319 395.646 763.114 397.049 760.946 398.629L758.559 396.992C753.249 393.242 745.905 394.599 742.233 399.93L735.518 409.64C731.845 414.971 733.153 422.343 738.512 426.065L740.928 427.751C740.193 430.337 739.634 432.888 739.259 435.53L736.417 436.057C730.001 437.205 725.791 443.306 726.939 449.721L729.06 461.342C730.285 467.778 736.366 472.066 742.781 470.918L745.623 470.391C746.908 472.73 748.311 474.934 749.968 477.123L748.303 479.461C744.61 484.87 745.967 492.214 751.326 495.935L760.987 502.678C766.347 506.4 773.67 505.121 777.391 499.761L779.028 497.375C781.615 498.109 784.215 498.64 786.807 499.044L787.334 501.885C788.51 508.35 794.64 512.61 801.055 511.462L812.655 509.418C819.021 508.298 823.33 502.14 822.133 495.753L821.578 492.863C823.867 491.606 826.121 490.174 828.289 488.595L830.676 490.231C835.987 493.981 843.359 492.674 847.052 487.265L853.746 477.633C857.439 472.224 856.111 464.929 850.723 461.159L848.385 459.494C849.12 456.907 849.65 454.307 850.005 451.743L852.896 451.188C859.262 450.068 863.522 443.939 862.346 437.474L860.224 425.854C858.978 419.495 852.799 415.263 846.405 416.334ZM854.365 426.943L856.409 438.542C857.036 441.785 854.93 444.836 851.709 445.385L850.478 445.637L844.414 446.713C844.085 451.818 843.171 456.933 841.201 461.807L846.243 465.318L847.302 466.018C850.006 467.864 850.635 471.564 848.761 474.22L842.095 483.901C840.297 486.577 836.597 487.206 833.893 485.36L832.833 484.66L827.869 481.169C823.935 484.686 819.519 487.367 814.811 489.429L815.937 495.464L816.09 496.752C816.717 499.995 814.583 502.996 811.39 503.595L799.818 505.688C796.625 506.286 793.546 504.132 792.997 500.91L792.716 499.63L791.64 493.566C786.563 493.286 781.469 492.295 776.547 490.353L773.056 495.317L772.357 496.376C770.482 499.032 766.81 499.71 764.105 497.863L754.416 491.071C751.712 489.224 751.034 485.552 752.929 482.82L753.629 481.76L757.042 476.775C753.575 472.813 750.845 468.425 748.782 463.718L742.719 464.794L741.459 464.996C738.238 465.546 735.187 463.44 734.588 460.247L732.467 448.626C731.868 445.433 733.974 442.382 737.196 441.833L744.539 440.477C744.77 435.428 745.761 430.334 747.675 425.362L742.661 421.9L741.652 421.172C739.025 419.346 738.318 415.625 740.165 412.921L746.88 403.211C748.755 400.556 752.377 399.906 755.082 401.753L756.141 402.452L761.105 405.943C765.039 402.426 769.455 399.746 774.085 397.662L772.778 390.29C772.229 387.068 774.334 384.018 777.507 383.497L789.127 381.375C792.272 380.805 795.4 382.931 795.998 386.125L796.201 387.384L797.355 393.468C802.432 393.749 807.554 394.789 812.42 396.633L815.862 391.696L816.61 390.609C818.485 387.954 822.108 387.304 824.812 389.15L834.473 395.894C837.128 397.769 837.806 401.441 835.96 404.145L835.183 405.183L831.77 410.169C835.286 414.102 837.967 418.519 840.058 423.275L846.093 422.15L847.401 421.919C850.687 421.595 853.766 423.749 854.365 426.943Z" fill="white"/>
<path d="M522.176 689.308C525.062 682.472 534.11 660.588 534.11 655.949V637.705H503.353H472.758V655.949C472.758 660.601 481.751 682.607 484.556 689.362C470.587 696.32 460.959 710.707 460.959 727.373C460.959 750.835 479.972 769.848 503.434 769.848C526.896 769.848 545.908 750.835 545.908 727.373C545.908 710.653 536.213 696.226 522.176 689.308ZM477.477 655.949V642.425H500.993V674.719H505.712V642.425H529.39V655.949C529.39 658.538 523.606 673.761 517.834 687.461C513.331 685.843 508.504 684.899 503.434 684.899C498.323 684.899 493.442 685.856 488.898 687.501C484.003 675.703 477.477 658.794 477.477 655.949ZM503.434 765.128C482.614 765.128 465.679 748.193 465.679 727.373C465.679 706.554 482.614 689.618 503.434 689.618C524.253 689.618 541.189 706.554 541.189 727.373C541.189 748.193 524.253 765.128 503.434 765.128Z" fill="white"/>
<path d="M503.434 699.057C487.792 699.057 475.117 711.732 475.117 727.373C475.117 743.015 487.792 755.69 503.434 755.69C519.075 755.69 531.75 743.015 531.75 727.373C531.75 711.732 519.075 699.057 503.434 699.057ZM503.434 750.97C490.422 750.97 479.837 740.385 479.837 727.373C479.837 714.361 490.422 703.777 503.434 703.777C516.446 703.777 527.03 714.361 527.03 727.373C527.03 740.385 516.446 750.97 503.434 750.97Z" fill="white"/>
<path d="M858.02 868.864C854.637 812.223 816.237 764.011 761.848 748.151C749.377 744.468 740.639 743.337 724.928 743.265C716.19 743.265 708.23 743.621 704.847 744.116C660.107 751.407 624.105 777.534 604.732 816.829C588.738 849.184 586.202 885.859 597.476 920.199C611.705 963.386 646.793 996.377 690.615 1007.71C700.057 1010.12 707.737 1011.25 718.937 1011.67C781.5 1014.08 837.089 973.365 853.504 913.045C857.455 898.603 858.934 884.017 858.02 868.864ZM846.113 902.142C835.053 956.798 788.834 997.863 733.666 1001.83C671.381 1006.36 615.231 963.953 602.267 902.498C595.572 870.566 602.267 836.089 620.515 808.615C649.401 765.285 699.846 744.328 750.009 754.875C760.083 757 768.678 760.044 779.531 765.494C814.126 782.844 838.361 814.56 846.113 852.652C848.999 866.883 848.999 887.768 846.113 902.142Z" fill="white"/>
<path d="M810.814 867.45C806.235 829.501 777.42 798.56 739.935 791.269C731.694 789.639 716.05 789.639 708.37 791.269C693.998 794.385 682.02 799.906 670.888 808.615C653.838 821.995 642.213 841.326 638.551 862.564C636.862 872.476 637.494 889.538 639.891 898.603C648.415 930.251 671.878 953.898 702.879 962.111C712.178 964.52 729.089 965.155 738.953 963.457C774.319 957.225 802.569 929.4 809.757 893.645C811.165 886.706 811.658 874.105 810.814 867.45ZM805.881 885.643C801.655 923.875 774.037 953.047 736.624 958.852C728.239 960.198 711.753 959.275 703.44 957.082C689.629 953.47 674.975 944.761 664.973 934.283C649.965 918.494 642.495 899.518 642.495 877.43C642.495 867.306 643.131 862.42 645.668 853.571C659.618 805.356 714.5 781.002 759.805 802.95C772.204 808.967 781.718 816.685 789.395 827.024C798.765 839.485 804.259 853.291 805.952 868.512C806.728 875.947 806.728 878.212 805.881 885.643Z" fill="white"/>
<path d="M623.119 1003.39L614.313 994.539L621.358 987.459L628.406 980.305L625.023 976.977L621.64 973.649L614.663 980.728L607.618 987.808L598.67 978.815L589.653 969.758L548.578 1011.03L507.574 1052.24L528.923 1073.62L550.2 1095.08L591.064 1054.01C613.538 1031.42 631.928 1012.8 631.928 1012.59C631.928 1012.38 627.981 1008.27 623.119 1003.39ZM584.019 1046.93L550.2 1080.91L535.967 1066.54L521.664 1052.24L555.623 1018.11L589.653 983.916L603.746 998.075C611.494 1005.86 617.835 1012.38 617.835 1012.59C617.835 1012.8 602.617 1028.24 584.019 1046.93Z" fill="white"/>
<circle cx="724.955" cy="876.266" r="87.558" fill="white"/>
<path d="M994.064 321.887C984.662 321.887 977.033 329.454 977.033 338.787C977.033 348.121 984.662 355.688 994.064 355.688C1003.47 355.688 1011.1 348.121 1011.1 338.787C1011.1 329.454 1003.47 321.887 994.064 321.887ZM994.064 350.051C987.8 350.051 982.584 344.879 982.584 338.66C982.584 332.449 987.679 327.396 993.934 327.396C1000.2 327.396 1005.29 332.449 1005.29 338.66C1005.29 344.879 1000.33 350.051 994.064 350.051ZM1039.13 338.004C1039.1 337.868 1039.11 337.713 1039.07 337.576C1039.05 337.522 1039.01 337.485 1038.99 337.43C1038.97 337.349 1038.98 337.257 1038.93 337.176C1030.68 318.417 1012.89 307.626 993.925 307.626C974.964 307.626 956.819 318.399 948.559 337.157C948.522 337.239 948.531 337.321 948.503 337.403C948.485 337.458 948.438 337.494 948.42 337.54C948.373 337.676 948.392 337.831 948.364 337.977C948.308 338.232 948.262 338.478 948.262 338.733C948.262 338.988 948.308 339.233 948.364 339.488C948.392 339.625 948.373 339.78 948.42 339.916C948.438 339.98 948.475 340.008 948.503 340.062C948.531 340.144 948.522 340.235 948.559 340.308C956.819 359.066 974.787 369.684 993.739 369.684C1012.7 369.684 1030.66 359.085 1038.92 340.335C1038.96 340.253 1038.95 340.171 1038.99 340.08C1039 340.035 1039.04 339.998 1039.06 339.944C1039.11 339.807 1039.09 339.652 1039.12 339.516C1039.17 339.261 1039.22 339.015 1039.22 338.76C1039.24 338.505 1039.19 338.259 1039.13 338.004ZM993.758 364.066C977.683 364.066 961.849 355.652 954.081 338.742C961.784 321.887 977.822 313.263 993.944 313.263C1010.06 313.263 1025.74 321.905 1033.44 338.76C1025.73 355.606 1009.88 364.066 993.758 364.066Z" fill="white"/>
<path d="M1231.7 1151.88C1227.19 1138.78 1214.78 1129.82 1200.74 1129.82C1189.21 1129.82 1178.65 1135.82 1172.72 1145.61C1159.89 1146.61 1149.77 1157.36 1149.77 1170.43C1149.77 1184.16 1160.94 1195.34 1174.7 1195.34H1229.22C1241.25 1195.34 1251.02 1185.56 1251.02 1173.54C1251.02 1162.36 1242.57 1153.12 1231.7 1151.88ZM1229.22 1188.69H1174.68C1164.62 1188.69 1156.42 1180.5 1156.42 1170.43C1156.42 1160.39 1164.56 1152.22 1174.6 1152.18H1176.7L1177.64 1150.41C1182.19 1141.81 1191.03 1136.47 1200.75 1136.47C1212.6 1136.47 1222.98 1144.46 1226 1155.91L1226.67 1158.39H1229.22C1237.58 1158.39 1244.38 1165.18 1244.38 1173.54C1244.38 1181.9 1237.57 1188.69 1229.22 1188.69Z" fill="white"/>
<path d="M505.478 403.762C504.434 403.762 503.588 404.589 503.588 405.61V461.101C503.588 462.122 504.434 462.949 505.478 462.949C506.522 462.949 507.368 462.122 507.368 461.101V433.356H543.311C543.966 433.356 544.578 433.023 544.917 432.48C545.263 431.936 545.294 431.254 544.998 430.68L539.747 420.413L544.998 410.146C545.288 409.572 545.257 408.889 544.917 408.346C544.571 407.802 543.966 407.47 543.311 407.47H507.368V405.61C507.368 404.589 506.522 403.762 505.478 403.762ZM540.248 411.16L535.942 419.579C535.677 420.099 535.677 420.715 535.942 421.234L540.248 429.653H507.368V411.16H540.248Z" fill="white"/>
<path d="M450.263 463.759C449.121 464.275 448.621 464.791 448.121 465.964C447.812 466.716 447.764 471.431 447.764 507.588C447.764 546.724 447.788 548.414 448.217 549.305C448.717 550.383 449.502 551.158 450.454 551.51C450.906 551.697 457.593 551.767 471.3 551.767C501.193 551.767 517.727 551.767 545.905 551.767C559.732 551.767 566.466 551.697 566.918 551.51C567.871 551.158 568.655 550.383 569.155 549.305C569.584 548.414 569.607 546.748 569.607 507.541C569.607 468.429 569.584 466.669 569.155 465.778C568.631 464.651 568.108 464.159 566.918 463.666C566.156 463.361 559.779 463.314 508.637 463.314C453.428 463.314 451.167 463.337 450.263 463.759ZM565.754 501.605L565.802 536.048H508.687H451.571V501.722C451.571 482.835 451.642 467.303 451.738 467.232C451.809 467.137 477.487 467.091 508.782 467.114L565.682 467.184L565.754 501.605ZM565.754 543.838L565.684 547.896H508.687H451.691L451.62 543.838L451.573 539.802H508.687H565.802L565.754 543.838Z" fill="white"/>
<path d="M455.38 501.558V532.294H508.687H561.995V501.558V470.822H508.687H455.38V501.558ZM507.95 495.95C508.569 496.161 508.664 496.302 508.545 496.725C508.332 497.428 508.332 497.428 507.475 497.123C505.285 496.372 503.358 497.663 504.119 499.352C504.286 499.704 505.048 500.22 506.238 500.807C508.332 501.816 509.165 502.755 509.165 504.115C509.165 505.101 508.498 506.297 507.641 506.837C506.332 507.681 502.502 507.424 502.335 506.485C502.192 505.71 502.597 505.546 503.691 505.922C505.81 506.649 507.594 505.899 507.594 504.279C507.594 503.201 507.237 502.824 505.215 501.887C504.191 501.417 503.264 500.807 503.001 500.408C502.406 499.587 502.359 498.296 502.882 497.311C503.571 495.997 506.094 495.316 507.95 495.95ZM518.445 495.904C519.04 496.068 519.373 496.748 518.992 497.123C518.897 497.218 518.325 497.193 517.778 497.053C515.66 496.537 513.495 497.5 512.495 499.446C511.996 500.408 512.091 502.942 512.686 504.045C513.448 505.524 514.638 506.134 516.541 506.086C517.398 506.086 518.303 506.016 518.564 505.969C518.945 505.922 519.04 506.039 519.04 506.485C519.04 507.142 518.47 507.353 516.423 507.399C514.139 507.446 512.306 506.508 511.283 504.771C510.807 503.926 510.712 503.48 510.712 501.673C510.712 499.797 510.783 499.445 511.379 498.459C512.093 497.263 512.949 496.559 514.329 496.043C515.279 495.716 517.445 495.622 518.445 495.904ZM526.727 496.325C527.679 496.771 528.202 497.709 528.202 498.906C528.202 499.938 527.489 501.205 526.799 501.439C526.299 501.58 526.109 502.026 526.538 502.026C526.966 502.026 527.514 503.153 528.061 505.171L528.608 507.188H527.822C527.108 507.188 527.012 507.094 526.799 506.297C526.679 505.828 526.442 504.983 526.322 504.444C525.918 502.919 525.395 502.449 523.966 502.308L522.729 502.191V504.701V507.19H521.896H521.063L521.11 501.606L521.181 496.046L522.252 495.905C523.704 495.693 525.774 495.904 526.727 496.325ZM539.909 496.302C541.456 497.1 542.027 499.469 541.052 501.041C540.433 502.05 538.91 502.707 537.316 502.73H536.055V504.959V507.19H535.222H534.389L534.436 501.606L534.507 496.046L535.46 495.881C536.792 495.668 539.101 495.904 539.909 496.302ZM471.563 500.385C471.563 505.406 471.396 506.157 470.087 506.954C469.278 507.447 467.445 507.588 466.827 507.213C466.637 507.095 466.565 506.838 466.66 506.533C466.803 506.134 466.97 506.063 467.517 506.181C468.54 506.368 469.587 505.875 469.873 505.031C470.016 504.609 470.135 502.474 470.135 500.128V495.928H470.849H471.563V500.385ZM480.868 501.323C481.891 504.232 482.724 506.742 482.724 506.906C482.748 507.117 482.51 507.188 481.987 507.141C481.273 507.071 481.201 506.976 480.654 505.357L480.083 503.668H478.013H475.919L475.396 505.428C474.87 507.165 474.846 507.19 474.061 507.19H473.252L475.203 501.558L477.155 495.904L478.083 495.973L479.035 496.043L480.868 501.323ZM485.318 499.728C485.984 501.84 486.65 503.999 486.817 504.538L487.103 505.547L488.722 500.831C489.602 498.226 490.388 496.068 490.435 495.998C490.506 495.951 490.864 495.928 491.268 495.975L491.958 496.044L489.935 501.605L487.911 507.19H487.055H486.198L484.437 501.84C483.485 498.907 482.628 496.373 482.581 496.209C482.51 496.021 482.724 495.927 483.271 495.927H484.104L485.318 499.728ZM499.096 501.558L501.048 507.19H500.262C499.453 507.19 499.429 507.143 498.882 505.477L498.287 503.788H496.193H494.099L493.529 505.477C492.981 507.073 492.886 507.19 492.243 507.19C491.862 507.19 491.553 507.095 491.553 506.979C491.553 506.838 494.242 498.955 495.242 496.21C495.289 496.046 495.742 495.928 496.241 495.928H497.145L499.096 501.558ZM531.771 501.558V507.19H531.057H530.343V501.558V495.927H531.057H531.771V501.558ZM550.81 496.514C550.81 497.077 550.762 497.101 549.024 497.101H547.239V502.145V507.19H546.525H545.812V502.145V497.101H544.026C542.289 497.101 542.241 497.078 542.241 496.514V495.927H546.524H550.807V496.514H550.81Z" fill="white"/>
<path d="M522.895 497.03C522.799 497.1 522.728 498.133 522.728 499.282V501.394L524.037 501.23C525.56 501.065 526.156 500.76 526.513 499.985C527.083 498.766 526.679 497.709 525.466 497.193C524.608 496.842 523.156 496.748 522.895 497.03Z" fill="white"/>
<path d="M536.365 497.03C536.151 497.1 536.055 497.805 536.055 499.353V501.558H537.126C539.505 501.558 540.719 499.916 539.743 498.039C539.292 497.146 537.412 496.607 536.365 497.03Z" fill="white"/>
<path d="M477.322 499.516C476.893 500.736 476.512 501.909 476.418 502.121C476.299 502.449 476.489 502.496 477.965 502.496C478.892 502.496 479.654 502.426 479.654 502.308C479.654 502.214 479.297 501.064 478.845 499.728L478.059 497.311L477.322 499.516Z" fill="white"/>
<path d="M495.313 499.916L494.456 502.496H496.193H497.954L497.168 500.196C496.739 498.952 496.335 497.779 496.287 497.616C496.24 497.452 495.789 498.484 495.313 499.916Z" fill="white"/>
<path d="M916.931 1091.49V1096.66H903.881V1080.63H916.931V1086.3H909.476V1091.49H916.931ZM930.343 1086.3H935.551V1080.63H922.501C922.501 1080.63 922.501 1083.47 922.501 1086.3C924.241 1088.07 925.159 1088.92 927.685 1091.49C926.211 1091.49 922.501 1091.49 922.501 1091.49V1096.66H935.551V1091.49L930.343 1086.3ZM948.83 1086.3H954.038V1080.63H940.988C940.988 1080.63 940.988 1083.47 940.988 1086.3C942.728 1088.07 943.646 1088.92 946.172 1091.49C944.698 1091.49 940.988 1091.49 940.988 1091.49V1096.66H954.038V1091.49L948.83 1086.3ZM971.232 1104.28L963.305 1191.38L928.965 1200.76L894.626 1191.38L886.699 1104.28H971.232ZM955.258 1121.98H928.929H902.141L903.422 1132.5H928.929H930.367L928.929 1133.1L904.352 1143.49L905.162 1153.77L928.929 1153.84L941.665 1153.88L940.843 1167.59L928.917 1170.99V1170.98L928.82 1171.01L917.305 1168.05L916.605 1159.54H916.568H905.887H905.851L907.252 1175.97L928.917 1182.47V1182.45L928.953 1182.47L950.522 1176.12L953.313 1143.5H928.929H928.869L928.929 1143.47L954.207 1132.51L955.258 1121.98Z" fill="white"/>
<path d="M786.247 1080.63H791.587V1085.97H796.469V1080.63H801.81V1096.83H796.469V1091.4H791.587V1096.83H786.247V1080.63ZM808.83 1086H804.13V1080.63H818.871V1086H814.171V1096.82H808.83V1086ZM821.203 1080.63H826.773L830.193 1086.31L833.612 1080.63H839.182V1096.83H833.866V1088.8L830.193 1094.56H830.096L826.423 1088.8V1096.83H821.203V1080.63V1080.63ZM841.841 1080.63H847.181V1091.47H854.685V1096.83H841.841V1080.63ZM778.453 1104.24L786.078 1191.11L820.345 1200.76L854.697 1191.1L862.345 1104.24H778.453ZM846.42 1124.85L845.937 1130.26L845.731 1132.65H845.695H820.393H820.357H805.531L806.486 1143.56H820.345H820.381H841.925H844.753L844.499 1146.42L842.034 1174.46L841.877 1176.26L820.393 1182.31L820.345 1182.32L798.837 1176.26L797.363 1159.53H802.22H807.899L808.649 1168.03L820.345 1171.23H820.357L832.065 1168.01L833.286 1154.2H820.393H820.357H796.892L794.306 1124.84L794.052 1121.98H820.345H820.381H846.65L846.42 1124.85Z" fill="white"/>
<path d="M1281.56 461.889C1276.06 451.314 1263.14 443.086 1251.69 439.017C1253.37 437.151 1255.04 435.038 1256.65 432.706C1263.1 423.311 1267.11 412.335 1267.11 404.041C1267.11 395.346 1263.73 387.169 1257.57 381.014C1251.41 374.859 1243.24 371.477 1234.54 371.477C1225.85 371.477 1217.67 374.859 1211.52 381.014C1205.36 387.169 1201.98 395.346 1201.98 404.041C1201.98 412.335 1205.98 423.311 1212.44 432.706C1214.04 435.038 1215.69 437.138 1217.37 439.004C1212.28 440.779 1207.2 443.254 1202.68 446.196C1195.86 450.628 1190.7 455.85 1187.75 461.305C1184.57 467.176 1183.95 473.37 1185.95 479.24C1188.5 486.73 1195.21 492.108 1205.88 495.205C1213.36 497.369 1223 498.471 1234.54 498.471C1246.09 498.471 1255.73 497.369 1263.21 495.192C1273.88 492.095 1280.58 486.717 1283.14 479.227C1285.08 473.499 1284.55 467.668 1281.56 461.889ZM1208.55 404.041C1208.55 389.709 1220.21 378.047 1234.54 378.047C1248.87 378.047 1260.54 389.709 1260.54 404.041C1260.54 410.961 1256.88 420.758 1251.23 428.987C1248.46 433.017 1245.43 436.386 1242.43 438.732C1239.52 441.025 1236.78 442.23 1234.53 442.23C1232.27 442.23 1229.54 441.012 1226.62 438.732C1223.64 436.386 1220.6 433.017 1217.84 428.987C1212.2 420.758 1208.55 410.961 1208.55 404.041ZM1276.92 477.102C1275.09 482.454 1269.87 486.419 1261.37 488.881C1254.49 490.877 1245.47 491.888 1234.54 491.888C1223.62 491.888 1214.6 490.877 1207.72 488.881C1199.23 486.406 1194 482.454 1192.17 477.102C1190.76 472.955 1191.21 468.692 1193.53 464.416C1198.88 454.541 1212.28 447.103 1222.91 444.148C1226.87 447.181 1230.85 448.8 1234.54 448.8C1238.25 448.8 1242.23 447.168 1246.21 444.135C1246.32 444.187 1246.44 444.226 1246.56 444.265C1257.03 447.323 1270.62 455.098 1275.74 464.934C1277.86 469.042 1278.26 473.137 1276.92 477.102Z" fill="white"/>
<path d="M1217.58 404.314C1217.58 394.621 1225.46 386.742 1235.15 386.742C1235.76 386.742 1236.25 386.249 1236.25 385.64C1236.25 385.031 1235.76 384.539 1235.15 384.539C1224.25 384.539 1215.39 393.402 1215.39 404.301C1215.39 404.91 1215.88 405.402 1216.49 405.402C1217.09 405.402 1217.58 404.91 1217.58 404.314Z" fill="white"/>
<path d="M1219.25 413.631C1219.43 413.631 1219.63 413.579 1219.8 413.488C1220.31 413.19 1220.5 412.516 1220.2 411.998C1219.78 411.285 1219.41 410.573 1219.1 409.912C1218.84 409.368 1218.19 409.134 1217.63 409.393C1217.09 409.653 1216.85 410.301 1217.11 410.858C1217.46 411.583 1217.85 412.335 1218.31 413.113C1218.5 413.437 1218.88 413.631 1219.25 413.631Z" fill="white"/>
<path d="M1165.22 493.948C1161.66 486.946 1153.28 481.497 1145.85 478.803C1146.94 477.567 1148.02 476.169 1149.07 474.624C1153.25 468.403 1155.85 461.135 1155.85 455.644C1155.85 449.886 1153.66 444.472 1149.66 440.396C1145.67 436.32 1140.37 434.081 1134.73 434.081C1129.09 434.081 1123.78 436.32 1119.79 440.396C1115.8 444.472 1113.6 449.886 1113.6 455.644C1113.6 461.135 1116.2 468.403 1120.39 474.624C1121.43 476.169 1122.5 477.559 1123.59 478.794C1120.29 479.97 1116.99 481.609 1114.06 483.557C1109.64 486.491 1106.29 489.949 1104.37 493.562C1102.31 497.449 1101.91 501.55 1103.21 505.438C1104.86 510.397 1109.22 513.958 1116.13 516.009C1120.98 517.442 1127.24 518.171 1134.73 518.171C1142.22 518.171 1148.47 517.442 1153.32 516C1160.25 513.95 1164.59 510.389 1166.25 505.429C1167.51 501.636 1167.16 497.775 1165.22 493.948ZM1117.86 455.644C1117.86 446.154 1125.43 438.431 1134.73 438.431C1144.02 438.431 1151.59 446.154 1151.59 455.644C1151.59 460.226 1149.22 466.713 1145.55 472.162C1143.75 474.83 1141.79 477.061 1139.85 478.614C1137.95 480.133 1136.18 480.931 1134.72 480.931C1133.26 480.931 1131.48 480.125 1129.59 478.614C1127.66 477.061 1125.68 474.83 1123.89 472.162C1120.24 466.713 1117.86 460.226 1117.86 455.644ZM1162.21 504.022C1161.03 507.566 1157.64 510.191 1152.13 511.822C1147.66 513.143 1141.81 513.812 1134.73 513.812C1127.64 513.812 1121.79 513.143 1117.33 511.822C1111.82 510.183 1108.43 507.566 1107.24 504.022C1106.32 501.276 1106.62 498.453 1108.12 495.621C1111.59 489.083 1120.29 484.157 1127.18 482.201C1129.75 484.209 1132.33 485.281 1134.73 485.281C1137.13 485.281 1139.71 484.2 1142.29 482.192C1142.37 482.227 1142.44 482.253 1142.52 482.278C1149.31 484.303 1158.13 489.452 1161.45 495.964C1162.83 498.685 1163.09 501.396 1162.21 504.022Z" fill="white"/>
<path d="M1123.72 455.824C1123.72 449.406 1128.83 444.189 1135.12 444.189C1135.52 444.189 1135.84 443.863 1135.84 443.459C1135.84 443.056 1135.52 442.73 1135.12 442.73C1128.05 442.73 1122.3 448.599 1122.3 455.816C1122.3 456.219 1122.62 456.545 1123.02 456.545C1123.4 456.545 1123.72 456.219 1123.72 455.824Z" fill="white"/>
<path d="M1124.81 461.993C1124.93 461.993 1125.05 461.959 1125.16 461.899C1125.5 461.702 1125.61 461.255 1125.42 460.912C1125.15 460.44 1124.91 459.968 1124.71 459.531C1124.54 459.17 1124.12 459.016 1123.76 459.188C1123.4 459.359 1123.25 459.788 1123.42 460.157C1123.65 460.638 1123.9 461.135 1124.19 461.65C1124.32 461.865 1124.56 461.993 1124.81 461.993Z" fill="white"/>
<path d="M1361.11 493.948C1357.47 486.946 1348.92 481.497 1341.33 478.803C1342.45 477.567 1343.56 476.169 1344.62 474.624C1348.89 468.403 1351.54 461.135 1351.54 455.644C1351.54 449.886 1349.3 444.472 1345.23 440.396C1341.15 436.32 1335.74 434.081 1329.98 434.081C1324.22 434.081 1318.81 436.32 1314.73 440.396C1310.66 444.472 1308.42 449.886 1308.42 455.644C1308.42 461.135 1311.07 468.403 1315.34 474.624C1316.41 476.169 1317.5 477.559 1318.61 478.794C1315.24 479.97 1311.88 481.609 1308.88 483.557C1304.37 486.491 1300.95 489.949 1299 493.562C1296.89 497.449 1296.48 501.55 1297.8 505.438C1299.49 510.397 1303.94 513.958 1311 516.009C1315.95 517.442 1322.34 518.171 1329.98 518.171C1337.63 518.171 1344.01 517.442 1348.96 516C1356.03 513.95 1360.47 510.389 1362.16 505.429C1363.45 501.636 1363.09 497.775 1361.11 493.948ZM1312.77 455.644C1312.77 446.154 1320.49 438.431 1329.98 438.431C1339.47 438.431 1347.19 446.154 1347.19 455.644C1347.19 460.226 1344.77 466.713 1341.03 472.162C1339.2 474.83 1337.19 477.061 1335.21 478.614C1333.28 480.133 1331.47 480.931 1329.97 480.931C1328.48 480.931 1326.67 480.125 1324.74 478.614C1322.76 477.061 1320.75 474.83 1318.92 472.162C1315.19 466.713 1312.77 460.226 1312.77 455.644ZM1358.04 504.022C1356.83 507.566 1353.37 510.191 1347.74 511.822C1343.19 513.143 1337.21 513.812 1329.98 513.812C1322.75 513.812 1316.78 513.143 1312.22 511.822C1306.6 510.183 1303.13 507.566 1301.92 504.022C1300.99 501.276 1301.29 498.453 1302.82 495.621C1306.37 489.083 1315.24 484.157 1322.28 482.201C1324.9 484.209 1327.54 485.281 1329.98 485.281C1332.43 485.281 1335.07 484.2 1337.7 482.192C1337.78 482.227 1337.86 482.253 1337.94 482.278C1344.87 484.303 1353.87 489.452 1357.26 495.964C1358.67 498.685 1358.93 501.396 1358.04 504.022Z" fill="white"/>
<path d="M1318.75 455.824C1318.75 449.406 1323.97 444.189 1330.38 444.189C1330.79 444.189 1331.11 443.863 1331.11 443.459C1331.11 443.056 1330.79 442.73 1330.38 442.73C1323.17 442.73 1317.3 448.599 1317.3 455.816C1317.3 456.219 1317.62 456.545 1318.03 456.545C1318.42 456.545 1318.75 456.219 1318.75 455.824Z" fill="white"/>
<path d="M1319.86 461.993C1319.98 461.993 1320.1 461.959 1320.22 461.899C1320.56 461.702 1320.68 461.255 1320.48 460.912C1320.21 460.44 1319.96 459.968 1319.75 459.531C1319.58 459.17 1319.15 459.016 1318.78 459.188C1318.42 459.359 1318.27 459.788 1318.44 460.157C1318.67 460.638 1318.93 461.135 1319.23 461.65C1319.36 461.865 1319.61 461.993 1319.86 461.993Z" fill="white"/>
<path d="M1395.1 685.021H1348.92C1340.83 685.021 1334.24 691.551 1334.24 699.589V806.029C1334.24 814.053 1340.83 820.596 1348.92 820.596H1395.1C1403.19 820.596 1409.79 814.053 1409.79 806.029V699.589C1409.78 691.551 1403.19 685.021 1395.1 685.021ZM1404.93 806.029C1404.93 811.383 1400.52 815.74 1395.1 815.74H1348.92C1343.5 815.74 1339.08 811.383 1339.08 806.029V699.589C1339.08 694.235 1343.5 689.877 1348.92 689.877H1395.1C1400.52 689.877 1404.93 694.235 1404.93 699.589V806.029V806.029ZM1399.94 699.285H1344.09C1343.41 699.285 1342.87 699.824 1342.87 700.502V794.837C1342.87 795.501 1343.41 796.054 1344.09 796.054H1399.94C1400.62 796.054 1401.16 795.515 1401.16 794.837V700.502C1401.14 699.824 1400.6 699.285 1399.94 699.285ZM1398.72 793.62H1345.29V701.719H1398.72V793.62V793.62ZM1372.01 798.074C1367.91 798.074 1364.59 801.408 1364.59 805.489C1364.59 809.57 1367.93 812.904 1372.01 812.904C1376.1 812.904 1379.42 809.57 1379.42 805.489C1379.42 801.394 1376.1 798.074 1372.01 798.074ZM1372.01 810.483C1369.26 810.483 1367.01 808.242 1367.01 805.489C1367.01 802.736 1369.26 800.495 1372.01 800.495C1374.76 800.495 1377 802.736 1377 805.489C1377 808.242 1374.76 810.483 1372.01 810.483ZM1363.98 694.526C1363.98 694.028 1364.47 693.626 1365.06 693.626H1378.97C1379.56 693.626 1380.05 694.028 1380.05 694.526C1380.05 695.024 1379.56 695.425 1378.97 695.425H1365.06C1364.47 695.411 1363.98 695.01 1363.98 694.526Z" fill="white"/>
<path d="M1373 907.191C1364.23 907.191 1356.7 910.289 1350.44 916.483C1344.17 922.678 1341.04 930.121 1341.04 938.824V988.823C1341.04 997.526 1344.17 1004.97 1350.44 1011.16C1356.7 1017.36 1364.22 1020.46 1373 1020.46C1381.77 1020.46 1389.26 1017.36 1395.46 1011.16C1401.65 1004.97 1404.75 997.526 1404.75 988.823V938.824C1404.75 930.121 1401.65 922.678 1395.46 916.483C1389.26 910.289 1381.77 907.191 1373 907.191ZM1397.66 988.823C1397.66 995.607 1395.27 1001.4 1390.47 1006.19C1385.68 1010.99 1379.89 1013.38 1373.1 1013.38C1366.32 1013.38 1360.46 1010.99 1355.51 1006.19C1350.58 1001.4 1348.1 995.607 1348.1 988.823V938.824C1348.1 932.04 1350.58 926.25 1355.51 921.453C1360.45 916.657 1366.32 914.264 1373.1 914.264C1379.89 914.264 1385.68 916.657 1390.47 921.453C1395.27 926.25 1397.66 932.04 1397.66 938.824V988.823ZM1373 928.422C1372.04 928.422 1371.2 928.758 1370.46 929.416C1369.72 930.075 1369.35 930.93 1369.35 931.959V949.665C1369.35 950.694 1369.72 951.549 1370.46 952.208C1371.2 952.867 1372.04 953.202 1373 953.202C1373.96 953.202 1374.77 952.867 1375.44 952.208C1376.11 951.549 1376.43 950.694 1376.43 949.665V931.971C1376.43 930.942 1376.1 930.087 1375.44 929.428C1374.78 928.769 1373.96 928.422 1373 928.422Z" fill="white"/>
<rect x="417" y="1153.2" width="39.779" height="39.779" stroke="white" stroke-width="4"/>
<rect x="483.544" y="1188.22" width="39.779" height="39.779" stroke="white" stroke-width="4"/>
<rect x="550.088" y="1153.2" width="39.779" height="39.779" stroke="white" stroke-width="4"/>
<line x1="1150.49" y1="1174.96" x2="964.864" y2="1174.96" stroke="white" stroke-width="2"/>
<line x1="1369.38" y1="499.015" x2="1362.38" y2="499.015" stroke="white" stroke-width="2"/>
<line x1="786.246" y1="1174.96" x2="590.116" y2="1174.96" stroke="white" stroke-width="2"/>
<line x1="785.246" y1="377.185" x2="785.246" y2="338.66" stroke="white" stroke-width="2"/>
<line x1="1248.55" y1="1171.21" x2="1374.64" y2="1171.21" stroke="white" stroke-width="2"/>
<line x1="1375.64" y1="1021.61" x2="1375.64" y2="1172.21" stroke="white" stroke-width="2"/>
<line x1="569.102" y1="505.771" x2="626.89" y2="505.771" stroke="white" stroke-width="2"/>
<line x1="1371.88" y1="906.035" x2="1371.88" y2="821.98" stroke="white" stroke-width="2"/>
<line x1="501.558" y1="638.108" x2="501.558" y2="550.55" stroke="white" stroke-width="2"/>
<line x1="782.743" y1="337.66" x2="947.352" y2="337.66" stroke="white" stroke-width="2"/>
<line x1="1038.41" y1="337.66" x2="1234.54" y2="337.66" stroke="white" stroke-width="2"/>
<line x1="1368.38" y1="685.389" x2="1368.38" y2="499.767" stroke="white" stroke-width="2"/>
<line x1="1233.79" y1="338.66" x2="1233.79" y2="371.932" stroke="white" stroke-width="2"/>
<line x1="503.558" y1="774.698" x2="503.558" y2="1186.22" stroke="white" stroke-width="2"/>
<line x1="549.839" y1="1178.47" x2="458.779" y2="1178.47" stroke="white" stroke-width="2"/>
<line x1="506" y1="408" x2="506" y2="91" stroke="white" stroke-width="4"/>
<line x1="992" y1="308" x2="992" y2="265" stroke="white" stroke-width="4"/>
<line x1="504" y1="93" x2="12" y2="93" stroke="white" stroke-width="4"/>
<line x1="1407" y1="751" x2="1662" y2="751" stroke="white" stroke-width="4"/>
<line x1="10" y1="95" x2="10" y2="19" stroke="white" stroke-width="4"/>
<circle cx="10" cy="10" r="10" fill="white"/>
<circle cx="196" cy="730" r="10" fill="white"/>
<circle cx="171" cy="1294" r="10" fill="white"/>
<circle cx="1038" cy="1261" r="10" fill="white"/>
<circle cx="1944" cy="1222" r="10" fill="white"/>
<circle cx="992" cy="257" r="10" fill="white"/>
<circle cx="1662" cy="750" r="10" fill="white"/>
<circle cx="1889" cy="96" r="10" fill="white"/>
<line x1="1608" y1="750" x2="1608" y2="196" stroke="white" stroke-width="4"/>
<line x1="1606" y1="194" x2="1891" y2="194.053" stroke="white" stroke-width="4"/>
<line x1="1889" y1="196" x2="1889" y2="103" stroke="white" stroke-width="4"/>
<line x1="465.008" y1="729" x2="201.008" y2="730" stroke="white" stroke-width="4"/>
<line x1="1038" y1="1177" x2="1038" y2="1261" stroke="white" stroke-width="4"/>
<line x1="1375" y1="1170" x2="1946" y2="1170" stroke="white" stroke-width="4"/>
<line x1="1944" y1="1172" x2="1944" y2="1222" stroke="white" stroke-width="4"/>
<line x1="504" y1="1294" x2="171" y2="1294" stroke="white" stroke-width="4"/>
<line x1="505" y1="1227" x2="505" y2="1296" stroke="white" stroke-width="4"/>
</svg>
