<svg xmlns="http://www.w3.org/2000/svg" viewBox="0 0 1000 1000" xml:space="preserve" fill="#F8AA0C"><path d="M500 10C229.4 10 10 229.4 10 500s219.4 490 490 490 490-219.4 490-490S770.6 10 500 10zm291 781c-37.8 37.8-81.8 67.5-130.8 88.2-12.4 5.3-25.1 9.9-37.9 13.9v-73.4c0-38.6-13.2-67-39.7-85.2 16.6-1.6 31.8-3.8 45.7-6.7 13.9-2.9 28.6-7 44-12.4 15.5-5.4 29.3-11.9 41.6-19.4 12.3-7.5 24.1-17.2 35.4-29.2 11.3-12 20.8-25.5 28.5-40.7 7.7-15.2 13.7-33.3 18.2-54.5s6.7-44.6 6.7-70.1c0-49.5-16.1-91.6-48.3-126.3 14.7-38.3 13.1-79.9-4.8-124.9l-12-1.4c-8.3-1-23.2 2.5-44.7 10.5-21.5 8-45.7 21.1-72.5 39.2-38-10.5-77.4-15.8-118.2-15.8-41.2 0-80.4 5.3-117.7 15.8-16.9-11.5-32.9-21-48.1-28.5s-27.3-12.6-36.4-15.3-17.5-4.4-25.4-5-12.8-.8-15.1-.5c-2.2.3-3.8.6-4.8 1-17.9 45.3-19.5 86.9-4.8 124.9-32.2 34.8-48.3 76.9-48.3 126.3 0 25.5 2.2 48.9 6.7 70.1 4.5 21.2 10.5 39.4 18.2 54.5 7.7 15.2 17.1 28.7 28.5 40.7 11.3 12 23.1 21.7 35.4 29.2 12.3 7.5 26.2 14 41.6 19.4 15.5 5.4 30.1 9.6 44 12.4 13.9 2.9 29.1 5.1 45.7 6.7-26.2 17.9-39.2 46.3-39.2 85.2v74.9c-14.4-4.3-28.7-9.4-42.7-15.3-49-20.7-93-50.4-130.8-88.2-37.8-37.8-67.5-81.8-88.2-130.8C99.4 609.5 88.5 555.6 88.5 500c0-55.6 10.9-109.5 32.3-160.2 20.7-49 50.4-93 88.2-130.8 37.8-37.8 81.8-67.5 130.8-88.2C390.6 99.4 444.5 88.5 500 88.5c55.6 0 109.5 10.9 160.2 32.3 49 20.7 93 50.4 130.8 88.2s67.5 81.8 88.2 130.8c21.4 50.7 32.3 104.6 32.3 160.2 0 55.6-10.9 109.5-32.3 160.2-20.7 49-50.4 93-88.2 130.8z"/></svg>