<svg xmlns="http://www.w3.org/2000/svg" viewBox="0 0 1000 1000" xml:space="preserve" fill="#F8AA0C"><path d="M621.2 389.1h50.7c8 0 14.5-6.8 14.5-15.1v-52.6c0-8.3-6.5-15.1-14.5-15.1h-50.7c-8 0-14.5 6.8-14.5 15.1V374c0 8.4 6.5 15.1 14.5 15.1zM500 592.2c49.4 0 89.5-41.6 89.5-93s-40.1-93-89.5-93-89.5 41.6-89.5 93 40.1 93 89.5 93z"/><path d="M500 10C229.4 10 10 229.4 10 500s219.4 490 490 490 490-219.4 490-490S770.6 10 500 10zm237.4 325.2v329.5h-.2c0 .6.2 1.1.2 1.6 0 41.1-31.3 74.3-70.4 76.2v.4H333v-.4c-39.1-1.8-70.4-35.1-70.4-76.2 0-.6.1-1.1.2-1.6h-.2V335.2h.2c0-.6-.2-1.1-.2-1.6 0-41.1 31.3-74.3 70.4-76.2v-.4H667.1v.4c39.1 1.8 70.4 35.1 70.4 76.2 0 .6-.1 1.1-.2 1.6h.1z"/><path d="M637.9 499.3c0 79.1-61.7 143.3-137.9 143.3s-137.9-64.2-137.9-143.3c0-10 1-19.8 2.9-29.3h-52.4v209.7c0 8.3 6.5 15.1 14.5 15.1H673c8 0 14.5-6.8 14.5-15.1V470H635c1.9 9.4 2.9 19.2 2.9 29.3z"/></svg>