<svg xmlns="http://www.w3.org/2000/svg" viewBox="0 0 1000 1000" xml:space="preserve" width="35" height="35" fill="#F9F9F9"><path d="M96.53 72.27C67.28 78.7 43.24 95.4 27 120.52c-3.37 5.21-7.66 13.33-9.5 18.23C10 158.97 10 158.05 10 342.3c0 101.39.61 180.27 1.53 190.99C20.11 636.65 63.3 729.93 136.2 802.98c67.54 67.39 152.08 109.51 249.8 124.21 16.23 2.45 29.56 2.76 114.1 2.76 102.62 0 108.28-.31 147.03-8.73C831.07 881.7 968.61 729.47 988.06 544.3c1.84-18.23 2.14-51.77 1.84-204.77l-.46-183.02-4.29-12.25c-9.8-27.57-30.02-50.54-55.29-62.79-25.88-12.41 10.11-11.49-430.83-11.33-320.25-.01-394.99.45-402.5 2.13zm688.29 144.27c42.58 10.57 78.11 19.76 78.72 20.37.77.61-7.81 35.84-18.99 78.42l-20.22 77.34-62.18-15.77c-34.15-8.88-69.38-17.77-78.26-20.06-8.88-2.14-16.39-4.29-16.69-4.44-1.22-1.07 37.22-155.3 38.6-155.3.91-.01 36.44 8.72 79.02 19.44zM336.68 375.52c.46 84.24.77 91.28 3.68 104.15 13.63 60.19 57.43 105.98 117.17 122.68 17.61 4.9 49.93 6.59 68.31 3.68 53.76-8.58 99.86-43.19 122.83-92.35 7.5-16.08 11.64-31.24 14.09-51l1.84-15.93h161.74v12.71c0 62.03-28.18 136.62-71.68 189.91-11.03 13.48-35.84 37.98-49.32 48.7-43.8 35.07-99.71 59.27-157.75 68.15-23.59 3.52-70.76 3.68-94.19 0-73.82-11.33-138.3-44.26-189.3-96.95-44.42-45.79-73.06-101.54-85.92-167.4-3.22-17-3.37-21.44-3.98-117.62l-.46-99.86 81.17.31 81.17.46.6 90.36z"/></svg>