<svg xmlns="http://www.w3.org/2000/svg" viewBox="0 0 1000 1000" xml:space="preserve" width="55" height="55" fill="#F9F9F9"><path d="M948.6 326.6c0-22.4.3-41.6-.1-60.8-1-51.2 9.8-43.3-44.7-61.5-1.4-.5-2.9-.9-4.4-1.2-87.9-15.7-175.1-18.6-259.9 15.5-55.5 22.3-97 60.3-118.6 116.8C494 406 514.7 484.8 571.1 537c44.8 41.5 99.4 67.1 152.5 95 39.2 20.6 79.3 39.2 113.5 68.4 43.5 37.1 50.8 89.4 31 135.7-18.8 44.1-60 56-101.9 62.6-38.3 6-77 3.9-115.2-4.8-45.4-10.4-89-24.6-127.2-52.5-2.9-2.1-8.2-4.3-10.6-3.1-2.4 1.3-3.6 6.8-3.6 10.5-.3 26.6.4 53.2-.4 79.8-.4 11.9 3.6 18.6 14.4 23.6 54.5 25.2 112.8 34 171.6 37.2 52.6 2.8 104.7-5.1 154.2-23.8 72.9-27.6 119.1-79.1 128.4-158.3 7.3-61.7-11.1-115.7-55.6-160.3-45.8-46-102.2-75.2-159.1-104-39.5-19.9-80.2-37.8-113.7-68-30.4-27.4-43.7-60.6-36.5-101.4 8.2-47 41.5-68.9 82.5-83.2 32.5-11.3 66.1-10.5 99.7-9.7 48.2 1.1 93.1 14.4 135 38.4 4.8 2.6 10 4.1 18.5 7.5zM380.4 504.5V150.1c0-38.7 0-38.7 38.6-38.7 64.7 0 129.5.1 194.2-.1 18-.1 20.3-2.7 20.4-20.5.1-18.4 0-36.8 0-55.2 0-25.4 0-25.5-25.4-25.5H108.1c-21.9 0-43.8-.1-65.8 0-20.8.1-21.9 1.2-21.9 21.3-.1 19.4-.1 38.9 0 58.3.1 20.1 1.6 21.7 22 21.7 68.3.1 136.6 0 204.9 0 23.7 0 23.7 0 23.7 23.1v737.9c0 21.3.5 21.9 21 22 22.4.1 44.9.1 67.3 0 20.9-.1 21-.2 21-21.7.1-122.7.1-245.4.1-368.2z"/></svg>